<svg width="328" height="181" viewBox="0 0 328 181" fill="none" xmlns="http://www.w3.org/2000/svg">
<path d="M11.3457 176H84V181H0V176H11.3457Z" fill="#FF9500"/>
<path d="M66.9761 155L70 167H13L16.0223 155H66.9761Z" fill="#FF9500"/>
<path d="M59.9702 125L63 137H21L24.032 125H59.9702Z" fill="#FF9500"/>
<path d="M52.064 95L55 107H29L31.9365 95H52.064Z" fill="#FF9500"/>
<path d="M70.8021 167L73 176H11L13.1474 167H70.8021Z" fill="#EAEAEA"/>
<path d="M51.0291 91L52 95H32L32.9709 91H51.0291Z" fill="#EAEAEA"/>
<path d="M55.421 107L60 125H24L28.5246 107H55.421Z" fill="#EAEAEA"/>
<path d="M62.5774 137L67 155H17L21.4731 137H62.5774Z" fill="#EAEAEA"/>
<path d="M31.1111 107L34 95H28.9505L26 107H31.1111Z" fill="#FFB600"/>
<path d="M10.1934 167L8 176H13.8708L16 167H10.1934Z" fill="#F0F3F4"/>
<path d="M15.9329 167L19 155L13.1663 155.004L10 167H15.9329Z" fill="#FFB600"/>
<path d="M19.1496 154.996L24 137.026L18.0109 137L13 155L19.1496 154.996Z" fill="#F0F3F4"/>
<path d="M23.8404 137L27 125H21.2533L18 136.974L23.8404 137Z" fill="#FFB600"/>
<path d="M26.4696 125L31 107H25.6758L21 125H26.4696Z" fill="#F0F3F4"/>
<path d="M34.0261 95L35 91H30.0099L29 95H34.0261Z" fill="#F0F3F4"/>
<path d="M84 176H0V175H84V176Z" fill="#FFB600"/>
<path d="M255.346 176H328V181H244V176H255.346Z" fill="#FF9500"/>
<path d="M310.976 155L314 167H257L260.022 155H310.976Z" fill="#FF9500"/>
<path d="M303.97 125L307 137H265L268.032 125H303.97Z" fill="#FF9500"/>
<path d="M296.064 95L299 107H273L275.936 95H296.064" fill="#FF9500"/>
<path d="M314.802 167L317 176H255L257.147 167H314.802Z" fill="#EAEAEA"/>
<path d="M295.029 91L296 95H276L276.971 91H295.029" fill="#EAEAEA"/>
<path d="M299.421 107L304 125H268L272.525 107H299.421Z" fill="#EAEAEA"/>
<path d="M306.577 137L311 155H261L265.473 137H306.577Z" fill="#EAEAEA"/>
<path d="M275.111 107L278 95H272.951L270 107H275.111Z" fill="#FFB600"/>
<path d="M254.193 167L252 176H257.871L260 167H254.193" fill="#F0F3F4"/>
<path d="M259.933 167L263 155L257.166 155.004L254 167H259.933" fill="#FFB600"/>
<path d="M263.15 154.996L268 137.026L262.011 137L257 155L263.15 154.996" fill="#F0F3F4"/>
<path d="M267.84 137L271 125H265.253L262 136.974L267.84 137" fill="#FFB600"/>
<path d="M270.47 125L275 107H269.676L265 125H270.47Z" fill="#F0F3F4"/>
<path d="M278.026 95L279 91H274.01L273 95H278.026" fill="#F0F3F4"/>
<path d="M328 176H244V175H328V176Z" fill="#FFB600"/>
<path d="M264.294 55.5102V75.4858H247.161L264.294 55.5102Z" fill="#FF9500"/>
<path d="M264.294 26.3999V55.5102L247.161 75.4858H222.095L264.294 26.3999Z" fill="#EAEAEA"/>
<path d="M264.294 21.6821V26.3999L222.095 75.4858H187.333L233.495 21.6821H237.533H250.344H264.294" fill="#FF9500"/>
<path d="M255.87 115.086V117.093H231.584V115.086H237.533H250.344H255.87Z" fill="#5A5A5A"/>
<path d="M250.344 75.4858V115.086H237.533V75.4858H247.16H250.344Z" fill="#5A5A5A"/>
<path d="M250.344 4.56739V21.6823H237.533V4.56739C237.533 2.05789 240.434 4.64542e-05 243.974 4.64542e-05C247.514 4.64542e-05 250.344 2.05789 250.344 4.56739Z" fill="#5A5A5A"/>
<path d="M233.495 21.6821L187.333 75.4858H162.267L208.501 21.6821H233.495Z" fill="#EAEAEA"/>
<path d="M208.502 21.6821L162.268 75.4858H127.506L173.671 21.6821H208.502Z" fill="#FF9500"/>
<path d="M173.671 21.6821L127.506 75.4858H102.443L148.675 21.6821H173.671" fill="#EAEAEA"/>
<path d="M148.674 21.6821L102.443 75.4858H67.6787L113.84 21.6821H148.674" fill="#FF9500"/>
<path d="M113.841 21.6821L67.679 75.4858H60.7397V54.3558L88.85 21.6821H113.841" fill="#EAEAEA"/>
<path d="M93.3779 115.086V117.093H69.0229V115.086H75.0411H87.8575H93.3779Z" fill="#5A5A5A"/>
<path d="M88.85 21.6822L60.7397 54.3558V21.6822H88.85Z" fill="#FF9500"/>
<path d="M87.8575 75.4858V115.086H75.041V75.4858H87.8575Z" fill="#5A5A5A"/>
<path d="M87.8575 4.56739V21.6823H75.041V4.56739C75.041 2.05789 77.8731 4.64542e-05 81.4131 4.64542e-05C84.9532 4.64542e-05 87.8575 2.05789 87.8575 4.56739Z" fill="#5A5A5A"/>
<path d="M266 76.6403H60.7397V74.1308H262.46V21.6168H266V76.6403Z" fill="#E07A00"/>
<path d="M62.5401 75.4658H59V20.4424H264.263V22.9519H62.5401V75.4658Z" fill="#F0F3F4"/>
<path d="M240.691 100.305H83.75V95.6121H240.691V100.305Z" fill="#5A5A5A"/>
</svg>
