<svg width="650" height="251" viewBox="0 0 650 251" fill="none" xmlns="http://www.w3.org/2000/svg">
<path fill-rule="evenodd" clip-rule="evenodd" d="M159.168 250.441H193.719V86.1797H159.168V250.441Z" fill="#221E1F"/>
<path fill-rule="evenodd" clip-rule="evenodd" d="M216.207 119.754H299.594V149.086H225.477V182.66H299.594V216.867H216.207V250.441H334.145V86.1797H216.207" fill="#221E1F"/>
<path fill-rule="evenodd" clip-rule="evenodd" d="M99.1602 86.1797L34.5508 147.879V86.1797H0V250.441H34.5508V194.172L47.2227 181.812L97.4961 250.441H140.195L72.793 156.863L145.246 86.1797" fill="#221E1F"/>
<path fill-rule="evenodd" clip-rule="evenodd" d="M4.67188 65.7695C4.85156 65.2031 5.11328 64.6992 5.46094 64.2539C5.80469 63.8086 6.23828 63.4492 6.75391 63.1758C7.27344 62.9063 7.86328 62.7695 8.52734 62.7695C9.16797 62.7695 9.74219 62.8984 10.2539 63.1562C10.7656 63.418 11.1953 63.7656 11.5469 64.2031C11.9023 64.6445 12.1719 65.1484 12.3633 65.7188C12.5586 66.2891 12.6562 66.8828 12.6562 67.4922C12.6562 68.0781 12.5664 68.6523 12.3867 69.2188C12.207 69.7812 11.9414 70.2891 11.5898 70.7422C11.2344 71.1953 10.8047 71.5547 10.293 71.8281C9.78125 72.1016 9.19531 72.2344 8.52734 72.2344C7.87891 72.2344 7.29688 72.1055 6.78516 71.8398C6.27344 71.5703 5.83984 71.2188 5.48828 70.7812C5.13672 70.3438 4.86719 69.8398 4.68359 69.2656C4.49609 68.6953 4.40234 68.1055 4.40234 67.4922C4.40234 66.9102 4.49219 66.3359 4.67188 65.7695ZM3.51563 72.4453C4.12109 73.1172 4.84375 73.6523 5.6875 74.0586C6.53125 74.4648 7.47266 74.668 8.50781 74.668C9.50391 74.668 10.4297 74.4727 11.2773 74.0781C12.1289 73.6875 12.8594 73.1641 13.4727 72.5039C14.082 71.8477 14.5586 71.0898 14.9062 70.2344C15.25 69.375 15.4258 68.4766 15.4258 67.5312C15.4258 66.6445 15.2578 65.7656 14.9258 64.9023C14.5938 64.0391 14.1289 63.2695 13.5312 62.5898C12.9336 61.9141 12.2109 61.3633 11.3672 60.9453C10.5273 60.5273 9.58984 60.3164 8.57031 60.3164C7.57422 60.3164 6.64844 60.5156 5.79688 60.9062C4.94922 61.2969 4.21484 61.8281 3.59766 62.4922C2.97656 63.1523 2.49219 63.918 2.14063 64.7812C1.78906 65.6445 1.61328 66.5508 1.61328 67.4922C1.61328 68.3984 1.77734 69.2773 2.11328 70.1445C2.44531 71.0078 2.91016 71.7734 3.51563 72.4453Z" fill="#221E1F"/>
<path fill-rule="evenodd" clip-rule="evenodd" d="M20.4844 62.8281H23.5547C23.7969 62.8281 24.0312 62.8789 24.2617 62.9766C24.4961 63.0781 24.6992 63.2266 24.8711 63.4258C25.043 63.625 25.1836 63.8672 25.2891 64.1523C25.3945 64.4414 25.4492 64.7617 25.4492 65.1211C25.4492 65.8242 25.2813 66.3828 24.9414 66.7969C24.6016 67.207 24.1797 67.4141 23.6758 67.4141H20.4844V62.8281ZM20.4844 69.8242H23.8359C24.4844 69.8242 25.082 69.6914 25.6289 69.4258C26.1719 69.1602 26.6367 68.8086 27.0234 68.3711C27.4062 67.9297 27.707 67.4297 27.9219 66.8633C28.1328 66.3008 28.2383 65.7187 28.2383 65.1211C28.2383 64.5508 28.125 63.9805 27.9023 63.418C27.6758 62.8516 27.3633 62.3477 26.9648 61.9023C26.5664 61.457 26.0898 61.0977 25.5391 60.8242C24.9883 60.5547 24.3867 60.418 23.7344 60.418H17.7344V74.5664H20.4844" fill="#221E1F"/>
<path fill-rule="evenodd" clip-rule="evenodd" d="M40.1758 72.1562H33.1016V68.4688H39.0625V66.2383H33.1016V62.8281H39.9961V60.418H30.3516V74.5664H40.1758" fill="#221E1F"/>
<path fill-rule="evenodd" clip-rule="evenodd" d="M45.2812 62.8281H48.6094C48.8477 62.8281 49.082 62.8867 49.3164 62.9961C49.5469 63.1094 49.7539 63.2695 49.9336 63.4766C50.1133 63.6836 50.2539 63.9258 50.3594 64.2031C50.4688 64.4844 50.5234 64.7891 50.5234 65.1211C50.5234 65.4414 50.4727 65.7383 50.3828 66.0195C50.2891 66.2969 50.1641 66.5391 50.0039 66.7461C49.8438 66.9531 49.6562 67.1133 49.4336 67.2344C49.2148 67.3516 48.9805 67.4141 48.7266 67.4141H45.2812V62.8281ZM45.2812 69.8242H47.9883L50.8789 74.5664H53.9688L50.7383 69.2461C51.5234 68.9141 52.1445 68.3711 52.6016 67.6211C53.0625 66.8711 53.293 66.0352 53.293 65.1211C53.293 64.5508 53.1797 63.9805 52.9531 63.418C52.7266 62.8516 52.4141 62.3477 52.0156 61.9023C51.6172 61.457 51.1406 61.0977 50.5898 60.8242C50.0391 60.5547 49.4375 60.418 48.7891 60.418H42.5312V74.5664H45.2812" fill="#221E1F"/>
<path fill-rule="evenodd" clip-rule="evenodd" d="M61.0039 63.5469L62.957 69.1094H58.9727L61.0039 63.5469ZM58.5117 71.0391H63.457L64.7695 74.5664H67.6016L62.2188 60.418H59.7891L54.3867 74.5664H57.2188" fill="#221E1F"/>
<path fill-rule="evenodd" clip-rule="evenodd" d="M72.1055 62.8281H74.4961C75.1602 62.8281 75.7539 62.9414 76.2812 63.168C76.8047 63.3945 77.2461 63.7148 77.6055 64.125C77.9648 64.5352 78.2383 65.0273 78.4219 65.5977C78.6094 66.1719 78.7031 66.7969 78.7031 67.4727C78.7031 68.1367 78.6094 68.7539 78.4219 69.3242C78.2383 69.8984 77.9687 70.3906 77.6172 70.8125C77.2656 71.2305 76.8242 71.5586 76.3008 71.7969C75.7734 72.0352 75.1719 72.1562 74.4961 72.1562H72.1055V62.8281ZM77.375 74.0586C78.2344 73.7227 78.9688 73.2422 79.5781 72.625C80.1914 72.0078 80.6562 71.2617 80.9844 70.3906C81.3086 69.5234 81.4727 68.5508 81.4727 67.4727C81.4727 66.5039 81.3242 65.5898 81.0352 64.7305C80.7422 63.875 80.3008 63.1289 79.7188 62.4883C79.1328 61.8516 78.4063 61.3477 77.5352 60.9766C76.6641 60.6016 75.6523 60.418 74.4961 60.418H69.3555V74.5664H74.4961C75.5586 74.5664 76.5195 74.3984 77.375 74.0586Z" fill="#221E1F"/>
<path fill-rule="evenodd" clip-rule="evenodd" d="M86.0273 65.7695C86.207 65.2031 86.4688 64.6992 86.8125 64.2539C87.1562 63.8086 87.5898 63.4492 88.1094 63.1758C88.6289 62.9063 89.2187 62.7695 89.8828 62.7695C90.5195 62.7695 91.0937 62.8984 91.6055 63.1562C92.1172 63.418 92.5508 63.7656 92.9023 64.2031C93.2539 64.6445 93.5273 65.1484 93.7188 65.7188C93.9102 66.2891 94.0078 66.8828 94.0078 67.4922C94.0078 68.0781 93.918 68.6523 93.7383 69.2188C93.5586 69.7812 93.293 70.2891 92.9414 70.7422C92.5898 71.1953 92.1562 71.5547 91.6484 71.8281C91.1328 72.1016 90.5469 72.2344 89.8828 72.2344C89.2305 72.2344 88.6523 72.1055 88.1367 71.8398C87.6289 71.5703 87.1953 71.2188 86.8438 70.7812C86.4922 70.3438 86.2227 69.8398 86.0352 69.2656C85.8516 68.6953 85.7578 68.1055 85.7578 67.4922C85.7578 66.9102 85.8477 66.3359 86.0273 65.7695ZM84.8711 72.4453C85.4727 73.1172 86.1992 73.6523 87.043 74.0586C87.8867 74.4648 88.8281 74.668 89.8633 74.668C90.8594 74.668 91.7812 74.4727 92.6328 74.0781C93.4844 73.6875 94.2148 73.1641 94.8242 72.5039C95.4375 71.8477 95.9141 71.0898 96.2617 70.2344C96.6055 69.375 96.7773 68.4766 96.7773 67.5312C96.7773 66.6445 96.6133 65.7656 96.2812 64.9023C95.9492 64.0391 95.4844 63.2695 94.8867 62.5898C94.2852 61.9141 93.5664 61.3633 92.7227 60.9453C91.8789 60.5273 90.9453 60.3164 89.9219 60.3164C88.9258 60.3164 88.0039 60.5156 87.1523 60.9062C86.3008 61.2969 85.5703 61.8281 84.9492 62.4922C84.332 63.1523 83.8477 63.918 83.4961 64.7812C83.1445 65.6445 82.9648 66.5508 82.9648 67.4922C82.9648 68.3984 83.1328 69.2773 83.4648 70.1445C83.7969 71.0078 84.2656 71.7734 84.8711 72.4453Z" fill="#221E1F"/>
<path fill-rule="evenodd" clip-rule="evenodd" d="M101.84 62.8281H105.168C105.406 62.8281 105.645 62.8867 105.875 62.9961C106.109 63.1094 106.316 63.2695 106.492 63.4766C106.672 63.6836 106.816 63.9258 106.922 64.2031C107.027 64.4844 107.082 64.7891 107.082 65.1211C107.082 65.4414 107.035 65.7383 106.941 66.0195C106.848 66.2969 106.723 66.5391 106.562 66.7461C106.402 66.9531 106.215 67.1133 105.996 67.2344C105.777 67.3516 105.539 67.4141 105.289 67.4141H101.84V62.8281ZM101.84 69.8242H104.551L107.441 74.5664H110.527L107.301 69.2461C108.086 68.9141 108.707 68.3711 109.164 67.6211C109.621 66.8711 109.852 66.0352 109.852 65.1211C109.852 64.5508 109.738 63.9805 109.512 63.418C109.289 62.8516 108.977 62.3477 108.574 61.9023C108.18 61.457 107.703 61.0977 107.152 60.8242C106.602 60.5547 106 60.418 105.348 60.418H99.0898V74.5664H101.84" fill="#221E1F"/>
<path fill-rule="evenodd" clip-rule="evenodd" d="M117.566 63.5469L119.52 69.1094H115.531L117.566 63.5469ZM115.074 71.0391H120.02L121.332 74.5664H124.164L118.781 60.418H116.348L110.949 74.5664H113.777" fill="#221E1F"/>
<path fill-rule="evenodd" clip-rule="evenodd" d="M133.051 74.5664H135.781V62.8281H140.305V60.418H128.527V62.8281H133.051" fill="#221E1F"/>
<path fill-rule="evenodd" clip-rule="evenodd" d="M151.703 67.6328C151.703 68.2187 151.648 68.7852 151.535 69.3359C151.422 69.8867 151.23 70.375 150.957 70.8008C150.688 71.2266 150.328 71.5703 149.883 71.8359C149.437 72.1016 148.891 72.2344 148.238 72.2344C147.602 72.2344 147.062 72.1055 146.621 71.8477C146.184 71.5898 145.828 71.2461 145.559 70.8203C145.285 70.3945 145.09 69.9062 144.98 69.3555C144.867 68.8047 144.809 68.2305 144.809 67.6328V60.418H142.059V67.6328C142.059 68.5508 142.168 69.4336 142.391 70.2812C142.605 71.1328 142.965 71.8828 143.453 72.5273C143.945 73.168 144.586 73.6875 145.379 74.0781C146.168 74.4727 147.129 74.668 148.258 74.668C149.348 74.668 150.285 74.4805 151.066 74.1094C151.852 73.7383 152.492 73.2344 152.992 72.5938C153.488 71.957 153.855 71.2148 154.086 70.3633C154.32 69.5117 154.438 68.6016 154.438 67.6328V60.418H151.703" fill="#221E1F"/>
<path fill-rule="evenodd" clip-rule="evenodd" d="M160.156 62.8281H163.484C163.723 62.8281 163.961 62.8867 164.191 62.9961C164.426 63.1094 164.633 63.2695 164.809 63.4766C164.988 63.6836 165.133 63.9258 165.238 64.2031C165.344 64.4844 165.398 64.7891 165.398 65.1211C165.398 65.4414 165.352 65.7383 165.258 66.0195C165.164 66.2969 165.039 66.5391 164.879 66.7461C164.719 66.9531 164.531 67.1133 164.312 67.2344C164.094 67.3516 163.855 67.4141 163.605 67.4141H160.156V62.8281ZM160.156 69.8242H162.867L165.758 74.5664H168.844L165.617 69.2461C166.402 68.9141 167.023 68.3711 167.48 67.6211C167.937 66.8711 168.168 66.0352 168.168 65.1211C168.168 64.5508 168.055 63.9805 167.828 63.418C167.602 62.8516 167.289 62.3477 166.891 61.9023C166.492 61.457 166.02 61.0977 165.469 60.8242C164.914 60.5547 164.316 60.418 163.664 60.418H157.406V74.5664H160.156" fill="#221E1F"/>
<path fill-rule="evenodd" clip-rule="evenodd" d="M170.859 74.5664H173.609V60.418H170.859V74.5664Z" fill="#221E1F"/>
<path fill-rule="evenodd" clip-rule="evenodd" d="M174.766 56.332H172.273L171.195 58.7031L172.91 59.2227L174.766 56.332Z" fill="#221E1F"/>
<path fill-rule="evenodd" clip-rule="evenodd" d="M181.699 72.2578C181.156 72.2578 180.625 72.1914 180.105 72.0586C179.586 71.9258 179.117 71.7617 178.691 71.5703C178.266 71.375 177.895 71.1836 177.586 70.9883C177.273 70.7969 177.055 70.6406 176.938 70.5234L175.723 72.8945C176.547 73.4805 177.477 73.9297 178.512 74.25C179.547 74.5664 180.598 74.7266 181.66 74.7266C182.352 74.7266 183.012 74.6523 183.645 74.4961C184.273 74.3477 184.832 74.1016 185.316 73.7695C185.801 73.4375 186.188 73.0039 186.473 72.4648C186.758 71.9258 186.902 71.2773 186.902 70.5234C186.902 69.8711 186.797 69.3242 186.582 68.8789C186.371 68.4336 186.066 68.0508 185.676 67.7305C185.285 67.4141 184.805 67.1484 184.242 66.9336C183.676 66.7227 183.051 66.5234 182.359 66.3359C181.824 66.2031 181.359 66.0781 180.953 65.957C180.547 65.8398 180.211 65.707 179.945 65.5586C179.68 65.4141 179.477 65.2422 179.34 65.0508C179.199 64.8594 179.129 64.6172 179.129 64.3242C179.129 63.8203 179.316 63.4258 179.688 63.1484C180.059 62.8672 180.625 62.7305 181.383 62.7305C181.805 62.7305 182.227 62.7812 182.637 62.8906C183.051 62.9961 183.43 63.125 183.781 63.2773C184.137 63.4297 184.434 63.5859 184.68 63.7461C184.926 63.9062 185.094 64.0312 185.188 64.125L186.402 61.8945C185.777 61.4688 185.047 61.0977 184.211 60.7852C183.375 60.4727 182.457 60.3164 181.461 60.3164C180.742 60.3164 180.07 60.4141 179.449 60.6055C178.824 60.8008 178.273 61.082 177.805 61.4531C177.332 61.8242 176.965 62.2891 176.699 62.8477C176.43 63.4063 176.301 64.0469 176.301 64.7617C176.301 65.3086 176.383 65.7773 176.547 66.168C176.715 66.5586 176.965 66.9062 177.297 67.2031C177.629 67.5039 178.043 67.7617 178.539 67.9805C179.039 68.1992 179.629 68.4023 180.305 68.5898C180.863 68.75 181.367 68.8945 181.82 69.0273C182.27 69.1602 182.656 69.3047 182.977 69.4648C183.293 69.625 183.539 69.8125 183.715 70.0234C183.887 70.2344 183.973 70.4961 183.973 70.8008C183.973 71.7695 183.215 72.2578 181.699 72.2578Z" fill="#221E1F"/>
<path fill-rule="evenodd" clip-rule="evenodd" d="M187.879 62.8281H192.402V74.5664H195.133V62.8281H199.656V60.418H187.879" fill="#221E1F"/>
<path fill-rule="evenodd" clip-rule="evenodd" d="M201.609 74.5703H204.359V60.418H201.609V74.5703Z" fill="#221E1F"/>
<path fill-rule="evenodd" clip-rule="evenodd" d="M218.359 72.8047C218.777 72.3984 219.102 71.9297 219.328 71.3984L217.074 70.1016C216.914 70.4883 216.703 70.8164 216.438 71.0898C216.172 71.3633 215.883 71.5859 215.57 71.7578C215.258 71.9297 214.93 72.0547 214.586 72.1367C214.238 72.2148 213.906 72.2578 213.59 72.2578C212.977 72.2578 212.414 72.1211 211.902 71.8555C211.391 71.5937 210.953 71.2383 210.59 70.8008C210.223 70.3633 209.941 69.8555 209.742 69.2773C209.543 68.6992 209.441 68.0977 209.441 67.4727C209.441 66.9141 209.527 66.3516 209.699 65.7891C209.875 65.2227 210.129 64.7187 210.469 64.2734C210.809 63.8281 211.234 63.4688 211.742 63.1875C212.258 62.9062 212.855 62.7695 213.547 62.7695C213.867 62.7695 214.191 62.8047 214.523 62.8789C214.855 62.9531 215.176 63.0664 215.48 63.2266C215.785 63.3867 216.07 63.6016 216.34 63.875C216.605 64.1484 216.828 64.4844 217.016 64.8828L219.129 63.4258C218.664 62.5117 217.957 61.7656 217.008 61.1953C216.055 60.6211 214.93 60.3398 213.629 60.3398C212.523 60.3398 211.543 60.543 210.68 60.9531C209.812 61.3672 209.086 61.9062 208.484 62.5703C207.887 63.2344 207.434 63.9883 207.121 64.832C206.809 65.6758 206.652 66.5273 206.652 67.3945C206.652 68.2969 206.82 69.1836 207.16 70.0547C207.5 70.9258 207.973 71.6992 208.574 72.3867C209.18 73.0703 209.902 73.625 210.738 74.0508C211.574 74.4766 212.496 74.6875 213.508 74.6875C214.078 74.6875 214.664 74.6133 215.262 74.4688C215.859 74.3203 216.422 74.1094 216.945 73.8281C217.473 73.5508 217.941 73.2109 218.359 72.8047Z" fill="#221E1F"/>
<path fill-rule="evenodd" clip-rule="evenodd" d="M226.422 63.5469L228.375 69.1094H224.391L226.422 63.5469ZM223.93 71.0391H228.875L230.188 74.5664H233.02L227.637 60.418H225.207L219.805 74.5664H222.637" fill="#221E1F"/>
<path fill-rule="evenodd" clip-rule="evenodd" d="M241.43 69.4258C241.695 69.082 242.062 68.7422 242.527 68.4102L245.797 71.8594C245.09 72.4023 244.324 72.6758 243.504 72.6758C243.145 72.6758 242.813 72.6172 242.504 72.5039C242.199 72.3945 241.938 72.2422 241.719 72.0586C241.5 71.8711 241.328 71.6484 241.211 71.3906C241.09 71.1289 241.031 70.8594 241.031 70.582C241.031 70.1563 241.164 69.7734 241.43 69.4258ZM242.238 62.6016C242.512 62.3398 242.855 62.2109 243.285 62.2109C243.668 62.2109 243.984 62.3203 244.23 62.5391C244.477 62.7578 244.598 63.0508 244.598 63.4062C244.598 63.7656 244.465 64.0938 244.199 64.3945C243.934 64.6914 243.547 65.0156 243.047 65.3594C242.805 65.1094 242.609 64.8945 242.453 64.7227C242.305 64.5508 242.18 64.3984 242.09 64.2656C241.996 64.1328 241.93 64.0078 241.887 63.8945C241.848 63.7813 241.828 63.6641 241.828 63.5469C241.828 63.1758 241.965 62.8594 242.238 62.6016ZM239.754 73.5117C240.168 73.8984 240.668 74.2031 241.262 74.4297C241.852 74.6562 242.512 74.7656 243.242 74.7656C243.961 74.7656 244.66 74.6523 245.336 74.418C246.016 74.1875 246.645 73.8438 247.23 73.3906L248.348 74.5664H251.855L248.922 71.5C249.309 70.8594 249.605 70.1562 249.82 69.3867C250.031 68.6172 250.145 67.7578 250.16 66.8164H247.988C247.988 67.3984 247.93 67.9453 247.816 68.4492C247.703 68.9531 247.547 69.4219 247.348 69.8438L244.641 67.0156C245.344 66.5117 245.922 65.9688 246.371 65.3906C246.824 64.8125 247.051 64.1367 247.051 63.3672C247.051 62.8477 246.945 62.3945 246.73 62.0039C246.52 61.6094 246.238 61.2852 245.895 61.0273C245.547 60.7656 245.148 60.5703 244.699 60.4375C244.246 60.3047 243.773 60.2383 243.285 60.2383C242.727 60.2383 242.211 60.3164 241.738 60.4766C241.266 60.6367 240.859 60.8672 240.512 61.1641C240.168 61.4648 239.895 61.8242 239.695 62.2422C239.496 62.6602 239.395 63.1211 239.395 63.6289C239.395 64.1328 239.512 64.6133 239.746 65.0703C239.977 65.5312 240.379 66.0781 240.953 66.7148C240.617 66.9414 240.305 67.1875 240.004 67.4531C239.703 67.7188 239.438 68.0078 239.207 68.3203C238.977 68.6328 238.793 68.9766 238.66 69.3477C238.527 69.7188 238.461 70.125 238.461 70.5625C238.461 71.1211 238.574 71.6562 238.801 72.168C239.023 72.6797 239.344 73.1289 239.754 73.5117Z" fill="#221E1F"/>
<path fill-rule="evenodd" clip-rule="evenodd" d="M263.453 72.2578C262.906 72.2578 262.375 72.1914 261.859 72.0586C261.34 71.9258 260.867 71.7617 260.441 71.5703C260.016 71.375 259.648 71.1836 259.336 70.9883C259.023 70.7969 258.809 70.6406 258.688 70.5234L257.473 72.8945C258.297 73.4805 259.227 73.9297 260.262 74.25C261.301 74.5664 262.348 74.7266 263.41 74.7266C264.102 74.7266 264.766 74.6523 265.395 74.4961C266.027 74.3477 266.586 74.1016 267.07 73.7695C267.555 73.4375 267.937 73.0039 268.227 72.4648C268.512 71.9258 268.652 71.2773 268.652 70.5234C268.652 69.8711 268.547 69.3242 268.336 68.8789C268.121 68.4336 267.82 68.0508 267.43 67.7305C267.035 67.4141 266.559 67.1484 265.992 66.9336C265.43 66.7227 264.801 66.5234 264.109 66.3359C263.578 66.2031 263.109 66.0781 262.703 65.957C262.301 65.8398 261.965 65.707 261.699 65.5586C261.434 65.4141 261.23 65.2422 261.09 65.0508C260.949 64.8594 260.883 64.6172 260.883 64.3242C260.883 63.8203 261.066 63.4258 261.438 63.1484C261.812 62.8672 262.375 62.7305 263.133 62.7305C263.559 62.7305 263.977 62.7812 264.391 62.8906C264.801 62.9961 265.184 63.125 265.535 63.2773C265.887 63.4297 266.184 63.5859 266.43 63.7461C266.676 63.9062 266.848 64.0312 266.941 64.125L268.156 61.8945C267.531 61.4688 266.801 61.0977 265.965 60.7852C265.125 60.4727 264.211 60.3164 263.215 60.3164C262.496 60.3164 261.824 60.4141 261.199 60.6055C260.574 60.8008 260.027 61.082 259.555 61.4531C259.086 61.8242 258.715 62.2891 258.449 62.8477C258.184 63.4063 258.051 64.0469 258.051 64.7617C258.051 65.3086 258.133 65.7773 258.301 66.168C258.465 66.5586 258.715 66.9062 259.047 67.2031C259.379 67.5039 259.797 67.7617 260.293 67.9805C260.789 68.1992 261.379 68.4023 262.059 68.5898C262.613 68.75 263.121 68.8945 263.57 69.0273C264.023 69.1602 264.41 69.3047 264.727 69.4648C265.047 69.625 265.293 69.8125 265.465 70.0234C265.637 70.2344 265.723 70.4961 265.723 70.8008C265.723 71.7695 264.969 72.2578 263.453 72.2578Z" fill="#221E1F"/>
<path fill-rule="evenodd" clip-rule="evenodd" d="M280.75 72.1562H273.676V68.4688H279.637V66.2383H273.676V62.8281H280.57V60.418H270.926V74.5664H280.75" fill="#221E1F"/>
<path fill-rule="evenodd" clip-rule="evenodd" d="M285.852 62.8281H289.184C289.422 62.8281 289.656 62.8867 289.891 62.9961C290.121 63.1094 290.328 63.2695 290.508 63.4766C290.687 63.6836 290.828 63.9258 290.934 64.2031C291.039 64.4844 291.094 64.7891 291.094 65.1211C291.094 65.4414 291.047 65.7383 290.953 66.0195C290.863 66.2969 290.734 66.5391 290.578 66.7461C290.418 66.9531 290.227 67.1133 290.008 67.2344C289.789 67.3516 289.555 67.4141 289.301 67.4141H285.852V62.8281ZM285.852 69.8242H288.562L291.453 74.5664H294.543L291.312 69.2461C292.098 68.9141 292.719 68.3711 293.176 67.6211C293.637 66.8711 293.863 66.0352 293.863 65.1211C293.863 64.5508 293.754 63.9805 293.527 63.418C293.301 62.8516 292.988 62.3477 292.59 61.9023C292.191 61.457 291.715 61.0977 291.164 60.8242C290.613 60.5547 290.012 60.418 289.359 60.418H283.102V74.5664H285.852" fill="#221E1F"/>
<path fill-rule="evenodd" clip-rule="evenodd" d="M302.652 74.5664L308.176 60.418H305.285L301.496 71.1211L297.672 60.418H294.781L300.344 74.5664" fill="#221E1F"/>
<path fill-rule="evenodd" clip-rule="evenodd" d="M309.887 74.5664H312.637V60.418H309.887V74.5664Z" fill="#221E1F"/>
<path fill-rule="evenodd" clip-rule="evenodd" d="M316.855 72.3867C317.457 73.0703 318.18 73.625 319.016 74.0508C319.855 74.4766 320.777 74.6875 321.785 74.6875C322.359 74.6875 322.941 74.6133 323.539 74.4688C324.141 74.3242 324.699 74.1094 325.227 73.832C325.75 73.5508 326.223 73.2109 326.641 72.8047C327.059 72.3984 327.379 71.9297 327.605 71.3984L325.355 70.1055C325.195 70.4883 324.98 70.8164 324.715 71.0898C324.449 71.3633 324.16 71.5859 323.852 71.7578C323.535 71.9297 323.207 72.0586 322.863 72.1367C322.516 72.2187 322.187 72.2578 321.867 72.2578C321.254 72.2578 320.695 72.125 320.184 71.8594C319.672 71.5938 319.23 71.2383 318.867 70.8008C318.5 70.3633 318.219 69.8555 318.02 69.2773C317.82 68.6992 317.723 68.0977 317.723 67.4727C317.723 66.9141 317.809 66.3555 317.98 65.7891C318.152 65.2227 318.41 64.7187 318.746 64.2734C319.086 63.8281 319.512 63.4688 320.023 63.1875C320.535 62.9102 321.137 62.7695 321.828 62.7695C322.145 62.7695 322.473 62.8047 322.805 62.8789C323.137 62.9531 323.453 63.0703 323.762 63.2266C324.066 63.3867 324.352 63.6016 324.617 63.875C324.883 64.1484 325.109 64.4844 325.293 64.8828L327.406 63.4258C326.941 62.5117 326.234 61.7656 325.285 61.1953C324.336 60.625 323.207 60.3398 321.906 60.3398C320.805 60.3398 319.82 60.543 318.957 60.957C318.094 61.3672 317.363 61.9062 316.766 62.5703C316.168 63.2344 315.711 63.9883 315.398 64.832C315.086 65.6758 314.93 66.5313 314.93 67.3945C314.93 68.2969 315.102 69.1836 315.438 70.0547C315.777 70.9258 316.25 71.6992 316.855 72.3867Z" fill="#221E1F"/>
<path fill-rule="evenodd" clip-rule="evenodd" d="M329.66 74.5664H332.41V60.418H329.66V74.5664Z" fill="#221E1F"/>
<path fill-rule="evenodd" clip-rule="evenodd" d="M345.473 69.2188C345.293 69.7812 345.027 70.2891 344.676 70.7422C344.324 71.1953 343.891 71.5547 343.379 71.8281C342.871 72.1016 342.281 72.2344 341.617 72.2344C340.965 72.2344 340.387 72.1055 339.871 71.8398C339.363 71.5703 338.93 71.2188 338.578 70.7812C338.227 70.3438 337.957 69.8398 337.77 69.2656C337.586 68.6953 337.492 68.1055 337.492 67.4922C337.492 66.9062 337.578 66.3359 337.762 65.7695C337.937 65.2031 338.203 64.6992 338.547 64.2539C338.895 63.8086 339.324 63.4492 339.844 63.1797C340.363 62.9062 340.953 62.7695 341.617 62.7695C342.254 62.7695 342.828 62.8984 343.34 63.1562C343.852 63.418 344.285 63.7656 344.637 64.2031C344.988 64.6445 345.262 65.1484 345.453 65.7188C345.645 66.2891 345.742 66.8828 345.742 67.4922C345.742 68.0781 345.652 68.6523 345.473 69.2188ZM348.512 67.5312C348.512 66.6445 348.348 65.7656 348.016 64.9023C347.684 64.0391 347.219 63.2695 346.621 62.5898C346.02 61.9102 345.301 61.3633 344.457 60.9453C343.613 60.5273 342.68 60.3164 341.656 60.3164C340.66 60.3164 339.738 60.5156 338.887 60.9062C338.035 61.2969 337.305 61.8242 336.684 62.4883C336.066 63.1563 335.582 63.918 335.23 64.7812C334.879 65.6445 334.703 66.5508 334.703 67.4922C334.703 68.3984 334.867 69.2813 335.199 70.1445C335.531 71.0078 336 71.7734 336.605 72.4453C337.211 73.1172 337.934 73.6523 338.777 74.0586C339.621 74.4648 340.563 74.668 341.598 74.668C342.594 74.668 343.516 74.4727 344.367 74.0781C345.219 73.6875 345.949 73.1641 346.559 72.5039C347.172 71.8477 347.648 71.0898 347.996 70.2344C348.34 69.375 348.512 68.4766 348.512 67.5312Z" fill="#221E1F"/>
<path fill-rule="evenodd" clip-rule="evenodd" d="M355.766 72.2578C355.223 72.2578 354.691 72.1914 354.172 72.0586C353.652 71.9258 353.184 71.7617 352.758 71.5703C352.332 71.375 351.965 71.1836 351.652 70.9883C351.34 70.7969 351.121 70.6406 351.004 70.5234L349.789 72.8945C350.613 73.4805 351.543 73.9297 352.578 74.25C353.613 74.5664 354.664 74.7266 355.727 74.7266C356.418 74.7266 357.078 74.6523 357.711 74.4961C358.34 74.3477 358.898 74.1016 359.383 73.7695C359.867 73.4375 360.254 73.0039 360.539 72.4648C360.824 71.9258 360.969 71.2773 360.969 70.5234C360.969 69.8711 360.863 69.3242 360.648 68.8789C360.437 68.4336 360.137 68.0508 359.742 67.7305C359.352 67.4141 358.871 67.1484 358.309 66.9336C357.742 66.7227 357.117 66.5234 356.426 66.3359C355.895 66.2031 355.426 66.0781 355.02 65.957C354.613 65.8398 354.277 65.707 354.012 65.5586C353.746 65.4141 353.547 65.2422 353.406 65.0508C353.266 64.8594 353.195 64.6172 353.195 64.3242C353.195 63.8203 353.383 63.4258 353.754 63.1484C354.125 62.8672 354.691 62.7305 355.449 62.7305C355.871 62.7305 356.293 62.7812 356.703 62.8906C357.117 62.9961 357.496 63.125 357.852 63.2773C358.203 63.4297 358.5 63.5859 358.746 63.7461C358.992 63.9062 359.16 64.0312 359.254 64.125L360.473 61.8945C359.848 61.4688 359.113 61.0977 358.277 60.7852C357.441 60.4727 356.523 60.3164 355.527 60.3164C354.809 60.3164 354.141 60.4141 353.516 60.6055C352.891 60.8008 352.344 61.082 351.871 61.4531C351.398 61.8242 351.031 62.2891 350.766 62.8477C350.496 63.4063 350.367 64.0469 350.367 64.7617C350.367 65.3086 350.449 65.7773 350.613 66.168C350.781 66.5586 351.031 66.9062 351.363 67.2031C351.695 67.5039 352.109 67.7617 352.609 67.9805C353.105 68.1992 353.695 68.4023 354.371 68.5898C354.93 68.75 355.434 68.8945 355.887 69.0273C356.34 69.1602 356.723 69.3047 357.043 69.4648C357.359 69.625 357.605 69.8125 357.781 70.0234C357.953 70.2344 358.039 70.4961 358.039 70.8008C358.039 71.7695 357.281 72.2578 355.766 72.2578Z" fill="#221E1F"/>
<path fill-rule="evenodd" clip-rule="evenodd" d="M378.188 72.1562H370.973V60.418H368.223V74.5664H378.188" fill="#221E1F"/>
<path fill-rule="evenodd" clip-rule="evenodd" d="M381.367 65.7695C381.547 65.2031 381.809 64.6992 382.152 64.2539C382.5 63.8086 382.93 63.4492 383.449 63.1758C383.969 62.9063 384.559 62.7695 385.223 62.7695C385.859 62.7695 386.437 62.8984 386.945 63.1562C387.461 63.418 387.891 63.7656 388.242 64.2031C388.594 64.6445 388.867 65.1484 389.059 65.7188C389.254 66.2891 389.348 66.8828 389.348 67.4922C389.348 68.0781 389.258 68.6523 389.078 69.2188C388.898 69.7812 388.637 70.2891 388.281 70.7422C387.93 71.1953 387.496 71.5547 386.988 71.8281C386.477 72.1016 385.887 72.2344 385.223 72.2344C384.57 72.2344 383.992 72.1055 383.48 71.8398C382.969 71.5703 382.535 71.2188 382.184 70.7812C381.832 70.3438 381.563 69.8398 381.379 69.2656C381.191 68.6953 381.098 68.1055 381.098 67.4922C381.098 66.9102 381.187 66.3359 381.367 65.7695ZM380.211 72.4453C380.816 73.1172 381.539 73.6523 382.383 74.0586C383.227 74.4648 384.168 74.668 385.203 74.668C386.199 74.668 387.121 74.4727 387.973 74.0781C388.824 73.6875 389.555 73.1641 390.164 72.5039C390.777 71.8477 391.254 71.0898 391.602 70.2344C391.945 69.375 392.117 68.4766 392.117 67.5312C392.117 66.6445 391.953 65.7656 391.621 64.9023C391.289 64.0391 390.824 63.2695 390.227 62.5898C389.629 61.9141 388.906 61.3633 388.062 60.9453C387.219 60.5273 386.285 60.3164 385.262 60.3164C384.266 60.3164 383.344 60.5156 382.492 60.9062C381.641 61.2969 380.91 61.8281 380.289 62.4922C379.672 63.1523 379.187 63.918 378.836 64.7812C378.484 65.6445 378.309 66.5508 378.309 67.4922C378.309 68.3984 378.473 69.2773 378.805 70.1445C379.137 71.0078 379.605 71.7734 380.211 72.4453Z" fill="#221E1F"/>
<path fill-rule="evenodd" clip-rule="evenodd" d="M395.559 72.5742C396.16 73.2266 396.871 73.7383 397.688 74.1094C398.508 74.4805 399.379 74.668 400.309 74.668C401.812 74.668 403.129 74.1016 404.258 72.9727V74.5664H406.527V67.293H401.406V69.3047H404.258V70.3047C403.152 71.5937 401.918 72.2344 400.551 72.2344C399.953 72.2344 399.395 72.1133 398.887 71.8672C398.371 71.6211 397.934 71.2852 397.559 70.8594C397.187 70.4375 396.895 69.9336 396.684 69.3555C396.469 68.7773 396.363 68.1562 396.363 67.4922C396.363 66.8555 396.461 66.25 396.652 65.6797C396.848 65.1094 397.117 64.6016 397.469 64.1641C397.82 63.7266 398.246 63.3828 398.746 63.1289C399.242 62.875 399.793 62.75 400.391 62.75C401.148 62.75 401.848 62.9375 402.492 63.3086C403.137 63.6797 403.641 64.2188 403.996 64.9219L406.051 63.4062C405.57 62.4648 404.855 61.7148 403.906 61.1562C402.957 60.5977 401.816 60.3164 400.488 60.3164C399.508 60.3164 398.598 60.5078 397.758 60.8867C396.922 61.2656 396.195 61.7773 395.578 62.4219C394.961 63.0664 394.473 63.8164 394.121 64.6719C393.77 65.5312 393.594 66.4453 393.594 67.4141C393.594 68.4375 393.77 69.3906 394.121 70.2734C394.473 71.1562 394.953 71.9258 395.559 72.5742Z" fill="#221E1F"/>
<path fill-rule="evenodd" clip-rule="evenodd" d="M409.078 74.5664H411.828V60.418H409.078V74.5664Z" fill="#221E1F"/>
<path fill-rule="evenodd" clip-rule="evenodd" d="M412.984 56.332H410.492L409.418 58.7031L411.133 59.2227L412.984 56.332Z" fill="#221E1F"/>
<path fill-rule="evenodd" clip-rule="evenodd" d="M419.922 72.2578C419.375 72.2578 418.844 72.1914 418.328 72.0586C417.809 71.9258 417.336 71.7617 416.91 71.5703C416.484 71.375 416.117 71.1836 415.805 70.9883C415.492 70.7969 415.277 70.6406 415.156 70.5234L413.941 72.8945C414.766 73.4805 415.695 73.9297 416.73 74.25C417.77 74.5664 418.816 74.7266 419.883 74.7266C420.57 74.7266 421.234 74.6523 421.863 74.4961C422.496 74.3477 423.055 74.1016 423.539 73.7695C424.023 73.4375 424.406 73.0039 424.695 72.4648C424.98 71.9258 425.121 71.2773 425.121 70.5234C425.121 69.8711 425.016 69.3242 424.805 68.8789C424.59 68.4336 424.289 68.0508 423.898 67.7305C423.504 67.4141 423.027 67.1484 422.461 66.9336C421.898 66.7227 421.27 66.5234 420.578 66.3359C420.047 66.2031 419.578 66.0781 419.172 65.957C418.77 65.8398 418.434 65.707 418.168 65.5586C417.902 65.4141 417.699 65.2422 417.559 65.0508C417.422 64.8594 417.352 64.6172 417.352 64.3242C417.352 63.8203 417.535 63.4258 417.906 63.1484C418.281 62.8672 418.844 62.7305 419.602 62.7305C420.027 62.7305 420.445 62.7812 420.859 62.8906C421.27 62.9961 421.652 63.125 422.004 63.2773C422.355 63.4297 422.652 63.5859 422.898 63.7461C423.145 63.9062 423.316 64.0312 423.41 64.125L424.625 61.8945C424 61.4688 423.27 61.0977 422.434 60.7852C421.594 60.4727 420.68 60.3164 419.684 60.3164C418.965 60.3164 418.293 60.4141 417.668 60.6055C417.043 60.8008 416.496 61.082 416.023 61.4531C415.555 61.8242 415.184 62.2891 414.918 62.8477C414.652 63.4063 414.52 64.0469 414.52 64.7617C414.52 65.3086 414.602 65.7773 414.77 66.168C414.934 66.5586 415.184 66.9062 415.516 67.2031C415.848 67.5039 416.266 67.7617 416.762 67.9805C417.262 68.1992 417.848 68.4023 418.527 68.5898C419.086 68.75 419.59 68.8945 420.039 69.0273C420.492 69.1602 420.879 69.3047 421.195 69.4648C421.516 69.625 421.762 69.8125 421.934 70.0234C422.105 70.2344 422.191 70.4961 422.191 70.8008C422.191 71.7695 421.438 72.2578 419.922 72.2578Z" fill="#221E1F"/>
<path fill-rule="evenodd" clip-rule="evenodd" d="M430.625 74.5664H433.355V62.8281H437.879V60.418H426.102V62.8281H430.625" fill="#221E1F"/>
<path fill-rule="evenodd" clip-rule="evenodd" d="M439.832 74.5664H442.582V60.418H439.832V74.5664Z" fill="#221E1F"/>
<path fill-rule="evenodd" clip-rule="evenodd" d="M446.797 72.3867C447.398 73.0703 448.121 73.625 448.961 74.0508C449.797 74.4766 450.719 74.6875 451.73 74.6875C452.301 74.6875 452.887 74.6133 453.484 74.4688C454.082 74.3242 454.641 74.1094 455.168 73.832C455.691 73.5508 456.164 73.2109 456.582 72.8047C457 72.3984 457.32 71.9297 457.547 71.3984L455.297 70.1055C455.137 70.4883 454.926 70.8164 454.656 71.0898C454.395 71.3633 454.105 71.5859 453.793 71.7578C453.48 71.9297 453.148 72.0586 452.805 72.1367C452.461 72.2187 452.129 72.2578 451.809 72.2578C451.195 72.2578 450.637 72.125 450.125 71.8594C449.613 71.5938 449.176 71.2383 448.809 70.8008C448.441 70.3633 448.16 69.8555 447.961 69.2773C447.762 68.6992 447.664 68.0977 447.664 67.4727C447.664 66.9141 447.75 66.3555 447.922 65.7891C448.094 65.2227 448.352 64.7187 448.691 64.2734C449.027 63.8281 449.453 63.4688 449.965 63.1875C450.477 62.9102 451.078 62.7695 451.77 62.7695C452.09 62.7695 452.414 62.8047 452.746 62.8789C453.078 62.9531 453.395 63.0703 453.703 63.2266C454.008 63.3867 454.293 63.6016 454.559 63.875C454.824 64.1484 455.051 64.4844 455.234 64.8828L457.348 63.4258C456.883 62.5117 456.176 61.7656 455.227 61.1953C454.277 60.625 453.148 60.3398 451.848 60.3398C450.746 60.3398 449.762 60.543 448.898 60.957C448.035 61.3672 447.305 61.9062 446.707 62.5703C446.109 63.2344 445.652 63.9883 445.34 64.832C445.027 65.6758 444.871 66.5313 444.871 67.3945C444.871 68.2969 445.043 69.1836 445.383 70.0547C445.719 70.9258 446.191 71.6992 446.797 72.3867Z" fill="#221E1F"/>
<path fill-rule="evenodd" clip-rule="evenodd" d="M461.664 65.7695C461.844 65.2031 462.105 64.6992 462.453 64.2539C462.797 63.8086 463.23 63.4492 463.746 63.1758C464.266 62.9063 464.855 62.7695 465.52 62.7695C466.16 62.7695 466.734 62.8984 467.246 63.1562C467.758 63.418 468.187 63.7656 468.539 64.2031C468.895 64.6445 469.164 65.1484 469.355 65.7188C469.551 66.2891 469.645 66.8828 469.645 67.4922C469.645 68.0781 469.559 68.6523 469.379 69.2188C469.199 69.7812 468.934 70.2891 468.578 70.7422C468.227 71.1953 467.797 71.5547 467.285 71.8281C466.773 72.1016 466.188 72.2344 465.52 72.2344C464.871 72.2344 464.289 72.1055 463.777 71.8398C463.266 71.5703 462.836 71.2188 462.48 70.7812C462.129 70.3438 461.859 69.8398 461.676 69.2656C461.488 68.6953 461.395 68.1055 461.395 67.4922C461.395 66.9102 461.484 66.3359 461.664 65.7695ZM460.508 72.4453C461.113 73.1172 461.836 73.6523 462.68 74.0586C463.523 74.4648 464.465 74.668 465.5 74.668C466.496 74.668 467.422 74.4727 468.27 74.0781C469.121 73.6875 469.852 73.1641 470.465 72.5039C471.074 71.8477 471.551 71.0898 471.898 70.2344C472.242 69.375 472.414 68.4766 472.414 67.5312C472.414 66.6445 472.25 65.7656 471.918 64.9023C471.586 64.0391 471.121 63.2695 470.523 62.5898C469.926 61.9141 469.203 61.3633 468.359 60.9453C467.52 60.5273 466.586 60.3164 465.562 60.3164C464.562 60.3164 463.641 60.5156 462.789 60.9062C461.937 61.2969 461.207 61.8281 460.59 62.4922C459.969 63.1523 459.484 63.918 459.133 64.7812C458.781 65.6445 458.605 66.5508 458.605 67.4922C458.605 68.3984 458.77 69.2773 459.105 70.1445C459.437 71.0078 459.902 71.7734 460.508 72.4453Z" fill="#221E1F"/>
<path fill-rule="evenodd" clip-rule="evenodd" d="M479.672 72.2578C479.125 72.2578 478.594 72.1914 478.078 72.0586C477.559 71.9258 477.086 71.7617 476.66 71.5703C476.234 71.375 475.867 71.1836 475.555 70.9883C475.242 70.7969 475.027 70.6406 474.906 70.5234L473.691 72.8945C474.516 73.4805 475.445 73.9297 476.48 74.25C477.52 74.5664 478.566 74.7266 479.633 74.7266C480.32 74.7266 480.984 74.6523 481.613 74.4961C482.246 74.3477 482.805 74.1016 483.289 73.7695C483.773 73.4375 484.156 73.0039 484.445 72.4648C484.73 71.9258 484.871 71.2773 484.871 70.5234C484.871 69.8711 484.766 69.3242 484.555 68.8789C484.34 68.4336 484.039 68.0508 483.648 67.7305C483.254 67.4141 482.777 67.1484 482.211 66.9336C481.648 66.7227 481.02 66.5234 480.328 66.3359C479.797 66.2031 479.328 66.0781 478.922 65.957C478.52 65.8398 478.184 65.707 477.918 65.5586C477.652 65.4141 477.449 65.2422 477.309 65.0508C477.172 64.8594 477.102 64.6172 477.102 64.3242C477.102 63.8203 477.285 63.4258 477.656 63.1484C478.031 62.8672 478.594 62.7305 479.352 62.7305C479.777 62.7305 480.195 62.7812 480.609 62.8906C481.02 62.9961 481.402 63.125 481.754 63.2773C482.105 63.4297 482.402 63.5859 482.648 63.7461C482.895 63.9062 483.066 64.0312 483.16 64.125L484.375 61.8945C483.75 61.4688 483.02 61.0977 482.184 60.7852C481.344 60.4727 480.43 60.3164 479.434 60.3164C478.715 60.3164 478.043 60.4141 477.418 60.6055C476.793 60.8008 476.246 61.082 475.773 61.4531C475.305 61.8242 474.934 62.2891 474.668 62.8477C474.402 63.4063 474.27 64.0469 474.27 64.7617C474.27 65.3086 474.352 65.7773 474.52 66.168C474.684 66.5586 474.934 66.9062 475.266 67.2031C475.598 67.5039 476.016 67.7617 476.512 67.9805C477.012 68.1992 477.598 68.4023 478.277 68.5898C478.836 68.75 479.34 68.8945 479.789 69.0273C480.242 69.1602 480.629 69.3047 480.945 69.4648C481.266 69.625 481.512 69.8125 481.684 70.0234C481.855 70.2344 481.941 70.4961 481.941 70.8008C481.941 71.7695 481.188 72.2578 479.672 72.2578Z" fill="#221E1F"/>
<path fill-rule="evenodd" clip-rule="evenodd" d="M647.492 1.94922C645.355 4.16406 643.496 6.17578 641.699 8.12109C638.301 11.8047 635.363 14.9844 632.141 17.7344C614.41 32.8711 592.742 41.5898 571.785 50.0234C569.965 50.7539 568.148 51.4844 566.328 52.2227C559.453 55.0039 552.398 57.7031 545.578 60.3203C526.562 67.6055 506.898 75.1367 488.672 85.2891C488.16 85.5781 487.656 85.8789 487.152 86.1797H452.672L417.648 188.102L382.414 86.1797H347.027L402.41 250.441H432.438L457.23 177.258C468.453 199.621 485.996 218.195 501.535 234.641L502.148 235.293L505.672 232.633L499.93 223.648C496.676 218.559 493.422 213.469 490.16 208.387C483.242 197.625 477.918 185.672 473.895 171.98H474.988C476.398 179.395 478.57 185.441 484.469 189.969C499.617 201.602 543.555 217.074 562.82 217.559L566.809 217.66L563.34 215.688C555.848 211.438 548.113 207.297 540.633 203.293C519.164 191.801 496.98 179.91 476.207 163.262L474.605 161L471.043 158.621C468.973 139.055 477.25 122.848 495.766 110.336C512.723 98.8711 532.121 91.8477 550.887 85.0547C553.199 84.2148 555.512 83.3789 557.82 82.5312C559.887 81.7773 561.953 81.0273 564.02 80.2734C581.953 73.7695 600.492 67.0469 617.004 56.2891C637.84 42.7148 647.77 26.1914 649.211 2.70703L649.379 0" fill="#221E1F"/>
<path fill-rule="evenodd" clip-rule="evenodd" d="M636.957 57.7812L636.359 56.7188L635.434 57.5156C615.621 74.5195 590.922 81.7305 567.039 88.707L562.449 90.0508C539.703 96.7383 515.742 104.539 494.754 119.68C492.711 121.16 490.687 122.727 488.73 124.242C487.805 124.965 486.879 125.684 485.945 126.395L481.188 130.031L486.867 128.141C503.344 122.652 520.637 120.437 537.359 118.293C550.465 116.613 564.012 114.875 577.039 111.574C606.547 104.098 626.129 88.1016 636.902 62.668C637.25 61.8477 637.543 60.9375 637.797 59.8906C637.938 59.3438 637.676 58.9375 637.395 58.5039C637.281 58.3242 637.133 58.0938 636.957 57.7812Z" fill="#221E1F"/>
<path fill-rule="evenodd" clip-rule="evenodd" d="M608.164 110.801L607.176 111.23C588.32 119.414 567.793 121.836 547.941 124.18C526.973 126.656 505.289 129.219 485.379 138.539L479.852 141.129L485.914 140.441C490.348 139.938 494.988 139.691 500.098 139.691C508.508 139.691 517.031 140.371 525.277 141.027C533.523 141.68 542.051 142.359 550.465 142.359C552.676 142.359 554.832 142.312 556.883 142.219C576.215 141.344 592.285 133.746 606.02 118.988C606.191 118.801 606.379 118.613 606.57 118.426C607.898 117.098 609.715 115.281 608.516 111.82" fill="#221E1F"/>
<path fill-rule="evenodd" clip-rule="evenodd" d="M533.176 148.812C522.527 148.035 511.52 147.234 500.691 147.234C495.016 147.234 489.824 147.445 484.82 147.887L481.805 148.148L484.383 149.734C496.879 157.414 514.648 162 531.906 162C547.199 162 559.965 158.52 567.852 152.199L570.086 150.406L566.391 150.422C555.191 150.422 544 149.605 533.176 148.812Z" fill="#221E1F"/>
</svg>
