<svg width="650" height="251" viewBox="0 0 650 251" fill="none" xmlns="http://www.w3.org/2000/svg">
<path d="M160.168 249.441H192.719V87.1797H160.168V249.441Z" fill="#07A79D"/>
<path d="M161.168 248.441H191.719V88.1797H161.168V248.441ZM193.719 250.441H159.168V86.1797H193.719V250.441Z" fill="#07A79D"/>
<path d="M333.145 249.441H217.207V217.867H300.594V181.66H226.477V150.086H300.594V118.754H217.207V87.1797H333.145" fill="#07A79D"/>
<path d="M218.207 248.441H332.145V88.1797H218.207V117.754H301.594V151.086H227.477V180.66H301.594V218.867H218.207V248.441ZM334.145 250.441H216.207V216.867H299.594V182.66H225.477V149.086H299.594V119.754H216.207V86.1797H334.145" fill="#07A79D"/>
<path d="M140.066 87.1797H99.5586L33.5508 150.215V87.1797H1V249.441H33.5508V193.75L47.3477 180.293L98.0039 249.441H138.242L71.4805 156.746L142.789 87.1797" fill="#07A79D"/>
<path d="M98.5117 248.441H136.289L70.1641 156.633L140.332 88.1797H99.9609L32.5508 152.555V88.1797H2V248.441H32.5508V193.332L47.4766 178.773L98.5117 248.441ZM140.195 250.441H97.4961L47.2227 181.812L34.5508 194.172V250.441H0V86.1797H34.5508V147.879L99.1602 86.1797H145.246L72.7969 156.863" fill="#07A79D"/>
<path d="M4.40234 67.4922C4.40234 68.1055 4.49609 68.6953 4.68359 69.2656C4.86719 69.8398 5.13672 70.3438 5.48828 70.7812C5.83984 71.2188 6.27344 71.5703 6.78516 71.8398C7.29688 72.1055 7.87891 72.2344 8.52734 72.2344C9.19531 72.2344 9.78125 72.1016 10.293 71.8281C10.8047 71.5547 11.2344 71.1953 11.5898 70.7422C11.9414 70.2891 12.207 69.7812 12.3867 69.2188C12.5664 68.6523 12.6562 68.0781 12.6562 67.4922C12.6562 66.8828 12.5586 66.2891 12.3633 65.7188C12.1719 65.1484 11.9023 64.6445 11.5469 64.2031C11.1953 63.7656 10.7656 63.418 10.2539 63.1562C9.74219 62.8984 9.16797 62.7695 8.52734 62.7695C7.86328 62.7695 7.27344 62.9062 6.75391 63.1797C6.23828 63.4492 5.80469 63.8086 5.46094 64.2539C5.11328 64.6992 4.85156 65.2031 4.67188 65.7695C4.49219 66.3359 4.40234 66.9102 4.40234 67.4922ZM8.50781 74.668C7.47266 74.668 6.53125 74.4648 5.6875 74.0586C4.84375 73.6562 4.12109 73.1172 3.51563 72.4453C2.91016 71.7734 2.44531 71.0078 2.11328 70.1445C1.77734 69.2813 1.61328 68.3984 1.61328 67.4922C1.61328 66.5508 1.78906 65.6445 2.14063 64.7812C2.49219 63.918 2.97656 63.1562 3.59766 62.4922C4.21484 61.8242 4.94922 61.2969 5.79688 60.9062C6.64844 60.5156 7.57422 60.3164 8.57031 60.3164C9.58984 60.3164 10.5273 60.5273 11.3672 60.9453C12.2109 61.3633 12.9336 61.9102 13.5312 62.5898C14.1289 63.2695 14.5938 64.0391 14.9258 64.9023C15.2578 65.7656 15.4258 66.6445 15.4258 67.5312C15.4258 68.4766 15.25 69.375 14.9062 70.2344C14.5586 71.0898 14.082 71.8477 13.4727 72.5039C12.8594 73.1641 12.1289 73.6875 11.2773 74.0781C10.4297 74.4727 9.50391 74.668 8.50781 74.668Z" fill="#221E1F"/>
<path d="M20.4844 67.4141H23.6758C24.1797 67.4141 24.6016 67.207 24.9414 66.7969C25.2813 66.3828 25.4492 65.8242 25.4492 65.1211C25.4492 64.7617 25.3945 64.4414 25.2891 64.1523C25.1836 63.8672 25.043 63.625 24.8711 63.4258C24.6992 63.2266 24.4961 63.0781 24.2617 62.9766C24.0312 62.8789 23.7969 62.8281 23.5547 62.8281H20.4844V67.4141ZM17.7344 74.5664V60.418H23.7344C24.3867 60.418 24.9883 60.5547 25.5391 60.8242C26.0898 61.0977 26.5664 61.457 26.9648 61.9023C27.3633 62.3477 27.6758 62.8516 27.9023 63.418C28.125 63.9805 28.2383 64.5508 28.2383 65.1211C28.2383 65.7187 28.1328 66.3008 27.9219 66.8633C27.707 67.4297 27.4062 67.9297 27.0234 68.3711C26.6367 68.8086 26.1719 69.1602 25.6289 69.4258C25.082 69.6914 24.4844 69.8242 23.8359 69.8242H20.4844V74.5664" fill="#221E1F"/>
<path d="M40.1758 72.1562V74.5664H30.3516V60.418H39.9961V62.8281H33.1016V66.2383H39.0586V68.4688H33.1016V72.1562" fill="#221E1F"/>
<path d="M45.2773 67.4141H48.7266C48.9805 67.4141 49.2148 67.3516 49.4336 67.2344C49.6523 67.1133 49.8438 66.9531 50.0039 66.7461C50.1602 66.5391 50.2891 66.2969 50.3828 66.0195C50.4727 65.7383 50.5195 65.4414 50.5195 65.1211C50.5195 64.7891 50.4688 64.4844 50.3594 64.2031C50.2539 63.9258 50.1133 63.6836 49.9336 63.4766C49.7539 63.2695 49.5469 63.1094 49.3164 62.9961C49.082 62.8867 48.8438 62.8281 48.6094 62.8281H45.2773V67.4141ZM42.5273 74.5664V60.418H48.7852C49.4375 60.418 50.0391 60.5547 50.5898 60.8242C51.1406 61.0977 51.6172 61.457 52.0156 61.9023C52.4141 62.3477 52.7266 62.8516 52.9531 63.418C53.1758 63.9805 53.2891 64.5508 53.2891 65.1211C53.2891 66.0391 53.0625 66.8711 52.6016 67.6211C52.1445 68.3711 51.5234 68.9141 50.7383 69.2461L53.9688 74.5664H50.8789L47.9883 69.8242H45.2773V74.5664" fill="#221E1F"/>
<path d="M62.957 69.1055L61.0039 63.5469L58.9727 69.1055H62.957ZM59.7891 60.418H62.2188L67.6016 74.5664H64.7734L63.457 71.0391H58.5156L57.2188 74.5664H54.3867" fill="#221E1F"/>
<path d="M78.7031 67.4727C78.7031 66.7969 78.6094 66.1719 78.4219 65.5977C78.2383 65.0273 77.9648 64.5352 77.6055 64.125C77.2461 63.7148 76.8047 63.3945 76.2812 63.168C75.7578 62.9414 75.1602 62.8281 74.4961 62.8281H72.1055V72.1562H74.4961C75.1758 72.1562 75.7773 72.0352 76.3008 71.7969C76.8281 71.5586 77.2656 71.2305 77.6172 70.8125C77.9687 70.3945 78.2383 69.8984 78.4219 69.3281C78.6094 68.7578 78.7031 68.1367 78.7031 67.4727ZM69.3555 74.5664V60.418H74.4961C75.6523 60.418 76.6641 60.6055 77.5352 60.9766C78.4063 61.3477 79.1328 61.8516 79.7188 62.4922C80.3047 63.1289 80.7422 63.875 81.0352 64.7344C81.3281 65.5898 81.4727 66.5039 81.4727 67.4727C81.4727 68.5508 81.3086 69.5234 80.9844 70.3945C80.6602 71.2617 80.1914 72.0078 79.5781 72.625C78.9688 73.2422 78.2344 73.7227 77.3789 74.0586C76.5195 74.3984 75.5586 74.5664 74.4961 74.5664" fill="#221E1F"/>
<path d="M85.7578 67.4922C85.7578 68.1055 85.8516 68.6953 86.0352 69.2656C86.2227 69.8398 86.4922 70.3438 86.8438 70.7812C87.1953 71.2188 87.6289 71.5703 88.1367 71.8398C88.6523 72.1055 89.2305 72.2344 89.8828 72.2344C90.5469 72.2344 91.1328 72.1016 91.6484 71.8281C92.1562 71.5547 92.5898 71.1953 92.9414 70.7422C93.293 70.2891 93.5586 69.7812 93.7383 69.2188C93.918 68.6523 94.0078 68.0781 94.0078 67.4922C94.0078 66.8828 93.9102 66.2891 93.7188 65.7188C93.5273 65.1484 93.2539 64.6445 92.9023 64.2031C92.5508 63.7656 92.1172 63.418 91.6055 63.1562C91.0937 62.8984 90.5195 62.7695 89.8828 62.7695C89.2187 62.7695 88.6289 62.9062 88.1094 63.1797C87.5898 63.4492 87.1562 63.8086 86.8125 64.2539C86.4688 64.6992 86.207 65.2031 86.0273 65.7695C85.8477 66.3359 85.7578 66.9102 85.7578 67.4922ZM89.8633 74.668C88.8281 74.668 87.8867 74.4648 87.043 74.0586C86.1992 73.6562 85.4727 73.1172 84.8711 72.4453C84.2656 71.7734 83.7969 71.0078 83.4648 70.1445C83.1328 69.2813 82.9648 68.3984 82.9648 67.4922C82.9648 66.5508 83.1445 65.6445 83.4961 64.7812C83.8477 63.918 84.332 63.1562 84.9492 62.4922C85.5703 61.8242 86.3008 61.2969 87.1523 60.9062C88.0039 60.5156 88.9258 60.3164 89.9219 60.3164C90.9453 60.3164 91.8789 60.5273 92.7227 60.9453C93.5664 61.3633 94.2852 61.9102 94.8867 62.5898C95.4844 63.2695 95.9492 64.0391 96.2812 64.9023C96.6133 65.7656 96.7773 66.6445 96.7773 67.5312C96.7773 68.4766 96.6055 69.375 96.2617 70.2344C95.9141 71.0898 95.4375 71.8477 94.8242 72.5039C94.2148 73.1641 93.4844 73.6875 92.6328 74.0781C91.7812 74.4727 90.8594 74.668 89.8633 74.668Z" fill="#221E1F"/>
<path d="M101.84 67.4141H105.289C105.539 67.4141 105.777 67.3516 105.996 67.2344C106.215 67.1133 106.402 66.9531 106.562 66.7461C106.723 66.5391 106.848 66.2969 106.941 66.0195C107.035 65.7383 107.082 65.4414 107.082 65.1211C107.082 64.7891 107.027 64.4844 106.922 64.2031C106.816 63.9258 106.672 63.6836 106.492 63.4766C106.316 63.2695 106.109 63.1094 105.875 62.9961C105.645 62.8867 105.406 62.8281 105.168 62.8281H101.84V67.4141ZM99.0898 74.5664V60.418H105.348C106 60.418 106.602 60.5547 107.152 60.8242C107.703 61.0977 108.18 61.457 108.574 61.9023C108.977 62.3477 109.289 62.8516 109.512 63.418C109.738 63.9805 109.852 64.5508 109.852 65.1211C109.852 66.0391 109.621 66.8711 109.164 67.6211C108.707 68.3711 108.086 68.9141 107.301 69.2461L110.527 74.5664H107.441L104.551 69.8242H101.84V74.5664" fill="#221E1F"/>
<path d="M119.52 69.1055L117.566 63.5469L115.531 69.1055H119.52ZM116.348 60.418H118.781L124.16 74.5664H121.332L120.016 71.0391H115.074L113.777 74.5664H110.949" fill="#221E1F"/>
<path d="M140.305 62.8281H135.781V74.5664H133.051V62.8281H128.527V60.418H140.305" fill="#221E1F"/>
<path d="M148.238 72.2344C148.887 72.2344 149.437 72.1055 149.883 71.8398C150.324 71.5703 150.684 71.2266 150.957 70.8008C151.23 70.375 151.422 69.8867 151.535 69.3359C151.648 68.7852 151.703 68.2187 151.703 67.6328V60.418H154.434V67.6328C154.434 68.6016 154.32 69.5117 154.09 70.3633C153.855 71.2148 153.488 71.957 152.988 72.5938C152.492 73.2344 151.852 73.7383 151.066 74.1094C150.281 74.4805 149.348 74.668 148.258 74.668C147.129 74.668 146.168 74.4727 145.379 74.0781C144.59 73.6875 143.945 73.1719 143.453 72.5234C142.965 71.8828 142.605 71.1328 142.387 70.2812C142.168 69.4336 142.059 68.5508 142.059 67.6328V60.418H144.809V67.6328C144.809 68.2305 144.863 68.8047 144.98 69.3555C145.09 69.9062 145.285 70.3945 145.559 70.8203C145.828 71.2461 146.184 71.5898 146.621 71.8477C147.062 72.1055 147.598 72.2344 148.238 72.2344Z" fill="#221E1F"/>
<path d="M160.156 67.4141H163.605C163.855 67.4141 164.094 67.3516 164.312 67.2344C164.531 67.1133 164.719 66.9531 164.879 66.7461C165.039 66.5391 165.164 66.2969 165.258 66.0195C165.352 65.7383 165.398 65.4414 165.398 65.1211C165.398 64.7891 165.344 64.4844 165.238 64.2031C165.133 63.9258 164.988 63.6836 164.809 63.4766C164.633 63.2695 164.426 63.1094 164.191 62.9961C163.961 62.8867 163.723 62.8281 163.484 62.8281H160.156V67.4141ZM157.406 74.5664V60.418H163.664C164.316 60.418 164.914 60.5547 165.469 60.8242C166.02 61.0977 166.492 61.457 166.891 61.9023C167.289 62.3477 167.602 62.8516 167.828 63.418C168.055 63.9805 168.168 64.5508 168.168 65.1211C168.168 66.0391 167.937 66.8711 167.48 67.6211C167.023 68.3711 166.402 68.9141 165.617 69.2461L168.844 74.5664H165.758L162.867 69.8242H160.156V74.5664" fill="#221E1F"/>
<path d="M172.91 59.2227L171.195 58.7031L172.273 56.332H174.766L172.91 59.2227ZM170.859 60.418H173.609V74.5664H170.859" fill="#221E1F"/>
<path d="M185.188 64.125C185.094 64.0312 184.926 63.9062 184.68 63.7461C184.434 63.5859 184.133 63.4297 183.781 63.2773C183.43 63.125 183.047 62.9961 182.637 62.8867C182.227 62.7812 181.805 62.7305 181.379 62.7305C180.621 62.7305 180.059 62.8711 179.688 63.1484C179.312 63.4258 179.129 63.8203 179.129 64.3242C179.129 64.6172 179.199 64.8594 179.34 65.0508C179.477 65.2461 179.68 65.4141 179.945 65.5586C180.211 65.707 180.547 65.8398 180.953 65.957C181.355 66.0781 181.824 66.2031 182.355 66.3359C183.047 66.5234 183.676 66.7227 184.242 66.9336C184.805 67.1484 185.285 67.4141 185.676 67.7305C186.066 68.0508 186.371 68.4336 186.582 68.8789C186.797 69.3242 186.902 69.8711 186.902 70.5234C186.902 71.2773 186.758 71.9258 186.473 72.4648C186.188 73.0039 185.801 73.4375 185.316 73.7695C184.832 74.1055 184.273 74.3438 183.645 74.5C183.012 74.6523 182.352 74.7266 181.66 74.7266C180.598 74.7266 179.547 74.5664 178.512 74.25C177.477 73.9297 176.547 73.4805 175.723 72.8945L176.938 70.5234C177.059 70.6406 177.27 70.7969 177.586 70.9883C177.895 71.1836 178.266 71.375 178.691 71.5703C179.117 71.7617 179.586 71.9258 180.105 72.0547C180.621 72.1914 181.156 72.2578 181.699 72.2578C183.215 72.2578 183.973 71.7695 183.973 70.8008C183.973 70.4961 183.887 70.2344 183.715 70.0234C183.539 69.8125 183.293 69.625 182.977 69.4648C182.656 69.3047 182.27 69.1602 181.82 69.0273C181.367 68.8945 180.863 68.75 180.305 68.5898C179.629 68.4023 179.039 68.1992 178.539 67.9805C178.043 67.7617 177.629 67.5039 177.297 67.2031C176.965 66.9023 176.715 66.5586 176.547 66.168C176.383 65.7773 176.297 65.3086 176.297 64.7617C176.297 64.0469 176.434 63.4063 176.699 62.8477C176.965 62.293 177.332 61.8242 177.805 61.4531C178.273 61.082 178.824 60.8008 179.449 60.6055C180.07 60.4141 180.742 60.3164 181.461 60.3164C182.457 60.3164 183.375 60.4727 184.211 60.7852C185.047 61.0977 185.777 61.4688 186.402 61.8906" fill="#221E1F"/>
<path d="M199.656 62.8281H195.133V74.5664H192.402V62.8281H187.879V60.418H199.656" fill="#221E1F"/>
<path d="M201.609 74.5664H204.359V60.418H201.609V74.5664Z" fill="#221E1F"/>
<path d="M206.652 67.3945C206.652 66.5273 206.809 65.6758 207.121 64.832C207.434 63.9883 207.887 63.2344 208.484 62.5703C209.086 61.9062 209.812 61.3672 210.68 60.957C211.543 60.543 212.523 60.3398 213.629 60.3398C214.93 60.3398 216.055 60.6211 217.008 61.1953C217.957 61.7656 218.664 62.5117 219.129 63.4258L217.016 64.8828C216.828 64.4844 216.605 64.1484 216.34 63.875C216.07 63.6016 215.785 63.3867 215.48 63.2266C215.176 63.0664 214.855 62.9531 214.523 62.8789C214.191 62.8047 213.867 62.7695 213.547 62.7695C212.855 62.7695 212.258 62.9102 211.742 63.1875C211.234 63.4688 210.809 63.8281 210.469 64.2734C210.129 64.7187 209.875 65.2227 209.699 65.7891C209.527 66.3516 209.441 66.9141 209.441 67.4727C209.441 68.0977 209.543 68.6992 209.742 69.2773C209.941 69.8555 210.223 70.3633 210.59 70.8008C210.953 71.2383 211.391 71.5937 211.902 71.8555C212.414 72.1211 212.977 72.2578 213.59 72.2578C213.906 72.2578 214.238 72.2148 214.586 72.1367C214.93 72.0586 215.258 71.9297 215.57 71.7578C215.883 71.5859 216.172 71.3633 216.438 71.0898C216.703 70.8164 216.914 70.4883 217.074 70.1016L219.328 71.3984C219.102 71.9297 218.777 72.3984 218.359 72.8047C217.941 73.2109 217.473 73.5508 216.945 73.8281C216.422 74.1094 215.859 74.3203 215.262 74.4688C214.664 74.6133 214.078 74.6875 213.508 74.6875C212.496 74.6875 211.574 74.4766 210.738 74.0508C209.902 73.625 209.18 73.0703 208.574 72.3867C207.973 71.6992 207.5 70.9258 207.16 70.0547C206.82 69.1836 206.652 68.2969 206.652 67.3945Z" fill="#221E1F"/>
<path d="M228.375 69.1055L226.422 63.5469L224.391 69.1055H228.375ZM225.207 60.418H227.637L233.02 74.5664H230.188L228.875 71.0391H223.93L222.637 74.5664H219.805" fill="#221E1F"/>
<path d="M241.828 63.5469C241.828 63.668 241.848 63.7813 241.891 63.8945C241.93 64.0078 241.996 64.1328 242.09 64.2656C242.18 64.3984 242.305 64.5508 242.453 64.7227C242.609 64.8945 242.805 65.1094 243.047 65.3594C243.547 65.0156 243.934 64.6914 244.199 64.3945C244.465 64.0938 244.598 63.7656 244.598 63.4062C244.598 63.0469 244.477 62.7617 244.23 62.5391C243.984 62.3203 243.668 62.2109 243.285 62.2109C242.855 62.2109 242.512 62.3398 242.238 62.6016C241.965 62.8594 241.828 63.1758 241.828 63.5469ZM243.504 72.6758C244.328 72.6758 245.09 72.4023 245.797 71.8594L242.527 68.4102C242.062 68.7422 241.695 69.0781 241.43 69.4258C241.164 69.7695 241.031 70.1563 241.031 70.582C241.031 70.8594 241.09 71.1289 241.211 71.3906C241.328 71.6484 241.5 71.8711 241.719 72.0547C241.938 72.2422 242.199 72.3906 242.504 72.5039C242.813 72.6172 243.145 72.6758 243.504 72.6758ZM248.348 74.5664L247.23 73.3906C246.645 73.8438 246.016 74.1875 245.336 74.418C244.66 74.6523 243.961 74.7656 243.242 74.7656C242.512 74.7656 241.852 74.6523 241.262 74.4297C240.668 74.2031 240.168 73.8984 239.754 73.5117C239.344 73.125 239.023 72.6758 238.801 72.168C238.574 71.6523 238.461 71.1211 238.461 70.5625C238.461 70.1211 238.527 69.7188 238.66 69.3477C238.793 68.9727 238.977 68.6328 239.207 68.3203C239.438 68.0078 239.703 67.7188 240.004 67.4531C240.305 67.1875 240.621 66.9414 240.953 66.7148C240.379 66.0781 239.977 65.5273 239.746 65.0703C239.516 64.6133 239.395 64.1328 239.395 63.625C239.395 63.1211 239.496 62.6602 239.695 62.2422C239.895 61.8203 240.168 61.4648 240.516 61.1641C240.859 60.8633 241.266 60.6367 241.738 60.4766C242.211 60.3164 242.727 60.2383 243.285 60.2383C243.773 60.2383 244.246 60.3047 244.699 60.4375C245.148 60.5703 245.547 60.7656 245.895 61.0273C246.238 61.2852 246.52 61.6094 246.73 62.0039C246.945 62.3945 247.051 62.8477 247.051 63.3672C247.051 64.1367 246.824 64.8125 246.371 65.3906C245.922 65.9688 245.344 66.5117 244.641 67.0156L247.352 69.8438C247.547 69.418 247.703 68.9531 247.816 68.4492C247.93 67.9453 247.988 67.4023 247.988 66.8164H250.16C250.145 67.7578 250.031 68.6133 249.82 69.3867C249.605 70.1562 249.309 70.8594 248.922 71.4961L251.855 74.5664" fill="#221E1F"/>
<path d="M266.941 64.125C266.848 64.0312 266.676 63.9062 266.434 63.7461C266.187 63.5859 265.887 63.4297 265.535 63.2773C265.184 63.125 264.801 62.9961 264.391 62.8867C263.977 62.7812 263.559 62.7305 263.133 62.7305C262.379 62.7305 261.812 62.8711 261.438 63.1484C261.066 63.4258 260.883 63.8203 260.883 64.3242C260.883 64.6172 260.953 64.8594 261.09 65.0508C261.23 65.2461 261.434 65.4141 261.699 65.5586C261.965 65.707 262.301 65.8398 262.703 65.957C263.109 66.0781 263.578 66.2031 264.109 66.3359C264.801 66.5234 265.43 66.7227 265.992 66.9336C266.559 67.1484 267.035 67.4141 267.43 67.7305C267.82 68.0508 268.121 68.4336 268.336 68.8789C268.547 69.3242 268.652 69.8711 268.652 70.5234C268.652 71.2773 268.512 71.9258 268.227 72.4648C267.941 73.0039 267.555 73.4375 267.07 73.7695C266.586 74.1055 266.027 74.3438 265.395 74.5C264.766 74.6523 264.105 74.7266 263.414 74.7266C262.348 74.7266 261.301 74.5664 260.262 74.25C259.227 73.9297 258.297 73.4805 257.473 72.8945L258.688 70.5234C258.809 70.6406 259.023 70.7969 259.336 70.9883C259.648 71.1836 260.016 71.375 260.441 71.5703C260.867 71.7617 261.34 71.9258 261.859 72.0547C262.379 72.1914 262.906 72.2578 263.453 72.2578C264.969 72.2578 265.723 71.7695 265.723 70.8008C265.723 70.4961 265.637 70.2344 265.465 70.0234C265.293 69.8125 265.047 69.625 264.73 69.4648C264.41 69.3047 264.023 69.1602 263.57 69.0273C263.121 68.8945 262.613 68.75 262.059 68.5898C261.379 68.4023 260.793 68.1992 260.297 67.9805C259.797 67.7617 259.379 67.5039 259.047 67.2031C258.715 66.9023 258.465 66.5586 258.301 66.168C258.133 65.7773 258.051 65.3086 258.051 64.7617C258.051 64.0469 258.184 63.4063 258.449 62.8477C258.715 62.293 259.086 61.8242 259.555 61.4531C260.027 61.082 260.574 60.8008 261.199 60.6055C261.824 60.4141 262.496 60.3164 263.215 60.3164C264.211 60.3164 265.129 60.4727 265.965 60.7852C266.801 61.0977 267.531 61.4688 268.156 61.8906" fill="#221E1F"/>
<path d="M280.754 72.1562V74.5664H270.926V60.418H280.57V62.8281H273.676V66.2383H279.637V68.4688H273.676V72.1562" fill="#221E1F"/>
<path d="M285.855 67.4141H289.301C289.555 67.4141 289.789 67.3516 290.008 67.2344C290.23 67.1133 290.418 66.9531 290.578 66.7461C290.734 66.5391 290.863 66.2969 290.953 66.0195C291.047 65.7383 291.098 65.4414 291.098 65.1211C291.098 64.7891 291.039 64.4844 290.938 64.2031C290.828 63.9258 290.687 63.6836 290.508 63.4766C290.328 63.2695 290.121 63.1094 289.891 62.9961C289.656 62.8867 289.422 62.8281 289.184 62.8281H285.855V67.4141ZM283.105 74.5664V60.418H289.359C290.012 60.418 290.613 60.5547 291.164 60.8242C291.715 61.0977 292.191 61.457 292.59 61.9023C292.988 62.3477 293.301 62.8516 293.527 63.418C293.754 63.9805 293.867 64.5508 293.867 65.1211C293.867 66.0391 293.637 66.8711 293.176 67.6211C292.719 68.3711 292.098 68.9141 291.312 69.2461L294.543 74.5664H291.453L288.562 69.8242H285.855V74.5664" fill="#221E1F"/>
<path d="M297.672 60.418L301.5 71.1211L305.285 60.418H308.176L302.652 74.5664H300.344L294.781 60.418" fill="#221E1F"/>
<path d="M309.887 74.5664H312.637V60.418H309.887V74.5664Z" fill="#221E1F"/>
<path d="M314.93 67.3945C314.93 66.5273 315.086 65.6758 315.398 64.832C315.711 63.9883 316.164 63.2344 316.766 62.5703C317.363 61.9062 318.094 61.3672 318.957 60.957C319.82 60.543 320.805 60.3398 321.906 60.3398C323.211 60.3398 324.336 60.6211 325.285 61.1953C326.234 61.7656 326.941 62.5117 327.406 63.4258L325.297 64.8828C325.109 64.4844 324.883 64.1484 324.617 63.875C324.352 63.6016 324.066 63.3867 323.762 63.2266C323.453 63.0664 323.137 62.9531 322.805 62.8789C322.473 62.8047 322.145 62.7695 321.828 62.7695C321.137 62.7695 320.535 62.9102 320.023 63.1875C319.512 63.4688 319.086 63.8281 318.746 64.2734C318.41 64.7187 318.152 65.2227 317.98 65.7891C317.809 66.3516 317.723 66.9141 317.723 67.4727C317.723 68.0977 317.82 68.6992 318.02 69.2773C318.219 69.8555 318.504 70.3633 318.867 70.8008C319.23 71.2383 319.672 71.5937 320.184 71.8555C320.695 72.1211 321.254 72.2578 321.867 72.2578C322.187 72.2578 322.516 72.2148 322.863 72.1367C323.211 72.0586 323.535 71.9297 323.852 71.7578C324.16 71.5859 324.449 71.3633 324.715 71.0898C324.98 70.8164 325.195 70.4883 325.355 70.1016L327.605 71.3984C327.379 71.9297 327.059 72.3984 326.641 72.8047C326.223 73.2109 325.75 73.5508 325.227 73.8281C324.699 74.1094 324.141 74.3203 323.539 74.4688C322.941 74.6133 322.355 74.6875 321.785 74.6875C320.777 74.6875 319.855 74.4766 319.016 74.0508C318.18 73.625 317.461 73.0703 316.855 72.3867C316.25 71.6992 315.777 70.9258 315.438 70.0547C315.102 69.1836 314.93 68.2969 314.93 67.3945Z" fill="#221E1F"/>
<path d="M329.66 74.5664H332.41V60.418H329.66V74.5664Z" fill="#221E1F"/>
<path d="M337.492 67.4922C337.492 68.1055 337.586 68.6953 337.77 69.2656C337.957 69.8398 338.227 70.3438 338.578 70.7812C338.93 71.2188 339.363 71.5703 339.871 71.8398C340.387 72.1055 340.965 72.2344 341.617 72.2344C342.281 72.2344 342.867 72.1016 343.383 71.8281C343.891 71.5547 344.324 71.1953 344.676 70.7422C345.027 70.2891 345.293 69.7812 345.473 69.2188C345.652 68.6523 345.742 68.0781 345.742 67.4922C345.742 66.8828 345.645 66.2891 345.453 65.7188C345.262 65.1484 344.988 64.6445 344.637 64.2031C344.285 63.7656 343.852 63.418 343.34 63.1562C342.828 62.8984 342.254 62.7695 341.617 62.7695C340.953 62.7695 340.363 62.9062 339.844 63.1797C339.324 63.4492 338.895 63.8086 338.547 64.2539C338.203 64.6992 337.941 65.2031 337.762 65.7695C337.582 66.3359 337.492 66.9102 337.492 67.4922ZM341.598 74.668C340.563 74.668 339.621 74.4648 338.777 74.0586C337.934 73.6562 337.211 73.1172 336.605 72.4453C336 71.7734 335.531 71.0078 335.199 70.1445C334.867 69.2813 334.699 68.3984 334.699 67.4922C334.699 66.5508 334.879 65.6445 335.23 64.7812C335.582 63.918 336.066 63.1562 336.684 62.4922C337.305 61.8242 338.035 61.2969 338.887 60.9062C339.738 60.5156 340.66 60.3164 341.656 60.3164C342.68 60.3164 343.613 60.5273 344.457 60.9453C345.301 61.3633 346.023 61.9102 346.621 62.5898C347.219 63.2695 347.684 64.0391 348.016 64.9023C348.348 65.7656 348.512 66.6445 348.512 67.5312C348.512 68.4766 348.34 69.375 347.996 70.2344C347.648 71.0898 347.172 71.8477 346.559 72.5039C345.949 73.1641 345.219 73.6875 344.367 74.0781C343.516 74.4727 342.594 74.668 341.598 74.668Z" fill="#221E1F"/>
<path d="M359.254 64.125C359.16 64.0312 358.992 63.9062 358.746 63.7461C358.5 63.5859 358.203 63.4297 357.852 63.2773C357.496 63.125 357.113 62.9961 356.703 62.8867C356.293 62.7812 355.871 62.7305 355.449 62.7305C354.691 62.7305 354.125 62.8711 353.754 63.1484C353.383 63.4258 353.195 63.8203 353.195 64.3242C353.195 64.6172 353.266 64.8594 353.406 65.0508C353.547 65.2461 353.746 65.4141 354.012 65.5586C354.277 65.707 354.613 65.8398 355.02 65.957C355.426 66.0781 355.895 66.2031 356.426 66.3359C357.113 66.5234 357.742 66.7227 358.309 66.9336C358.871 67.1484 359.352 67.4141 359.742 67.7305C360.137 68.0508 360.437 68.4336 360.648 68.8789C360.863 69.3242 360.969 69.8711 360.969 70.5234C360.969 71.2773 360.824 71.9258 360.539 72.4648C360.254 73.0039 359.867 73.4375 359.383 73.7695C358.898 74.1055 358.34 74.3438 357.711 74.5C357.078 74.6523 356.418 74.7266 355.727 74.7266C354.664 74.7266 353.613 74.5664 352.578 74.25C351.543 73.9297 350.613 73.4805 349.789 72.8945L351.004 70.5234C351.125 70.6406 351.34 70.7969 351.652 70.9883C351.965 71.1836 352.332 71.375 352.758 71.5703C353.184 71.7617 353.652 71.9258 354.172 72.0547C354.691 72.1914 355.223 72.2578 355.766 72.2578C357.281 72.2578 358.039 71.7695 358.039 70.8008C358.039 70.4961 357.953 70.2344 357.781 70.0234C357.609 69.8125 357.359 69.625 357.043 69.4648C356.723 69.3047 356.34 69.1602 355.887 69.0273C355.434 68.8945 354.93 68.75 354.371 68.5898C353.695 68.4023 353.105 68.1992 352.609 67.9805C352.109 67.7617 351.695 67.5039 351.363 67.2031C351.031 66.9023 350.781 66.5586 350.613 66.168C350.449 65.7773 350.367 65.3086 350.367 64.7617C350.367 64.0469 350.5 63.4063 350.766 62.8477C351.031 62.293 351.398 61.8242 351.871 61.4531C352.344 61.082 352.891 60.8008 353.516 60.6055C354.141 60.4141 354.812 60.3164 355.527 60.3164C356.523 60.3164 357.441 60.4727 358.277 60.7852C359.113 61.0977 359.848 61.4688 360.473 61.8906" fill="#221E1F"/>
<path d="M368.223 74.5664V60.418H370.973V72.1562H378.188V74.5664" fill="#221E1F"/>
<path d="M381.098 67.4922C381.098 68.1055 381.191 68.6953 381.379 69.2656C381.563 69.8398 381.832 70.3438 382.184 70.7812C382.535 71.2188 382.969 71.5703 383.48 71.8398C383.992 72.1055 384.57 72.2344 385.223 72.2344C385.887 72.2344 386.477 72.1016 386.988 71.8281C387.496 71.5547 387.93 71.1953 388.281 70.7422C388.637 70.2891 388.898 69.7812 389.078 69.2188C389.258 68.6523 389.348 68.0781 389.348 67.4922C389.348 66.8828 389.254 66.2891 389.059 65.7188C388.867 65.1484 388.594 64.6445 388.242 64.2031C387.891 63.7656 387.461 63.418 386.945 63.1562C386.437 62.8984 385.859 62.7695 385.223 62.7695C384.559 62.7695 383.969 62.9062 383.449 63.1797C382.93 63.4492 382.496 63.8086 382.152 64.2539C381.809 64.6992 381.547 65.2031 381.367 65.7695C381.187 66.3359 381.098 66.9102 381.098 67.4922ZM385.203 74.668C384.164 74.668 383.227 74.4648 382.383 74.0586C381.539 73.6562 380.812 73.1172 380.211 72.4453C379.605 71.7734 379.137 71.0078 378.805 70.1445C378.473 69.2813 378.309 68.3984 378.309 67.4922C378.309 66.5508 378.484 65.6445 378.836 64.7812C379.187 63.918 379.672 63.1562 380.289 62.4922C380.91 61.8242 381.641 61.2969 382.492 60.9062C383.344 60.5156 384.266 60.3164 385.262 60.3164C386.285 60.3164 387.219 60.5273 388.062 60.9453C388.906 61.3633 389.629 61.9102 390.227 62.5898C390.824 63.2695 391.289 64.0391 391.621 64.9023C391.953 65.7656 392.117 66.6445 392.117 67.5312C392.117 68.4766 391.945 69.375 391.602 70.2344C391.254 71.0898 390.777 71.8477 390.164 72.5039C389.555 73.1641 388.824 73.6875 387.973 74.0781C387.121 74.4727 386.199 74.668 385.203 74.668Z" fill="#221E1F"/>
<path d="M404.258 72.9727C403.129 74.1016 401.812 74.668 400.309 74.668C399.379 74.668 398.508 74.4805 397.688 74.1094C396.871 73.7383 396.16 73.2266 395.559 72.5742C394.953 71.9258 394.473 71.1562 394.121 70.2734C393.77 69.3906 393.594 68.4375 393.594 67.4141C393.594 66.4453 393.77 65.5312 394.121 64.6719C394.473 63.8164 394.961 63.0664 395.574 62.4219C396.195 61.7773 396.922 61.2656 397.758 60.8867C398.598 60.5078 399.508 60.3164 400.488 60.3164C401.816 60.3164 402.957 60.5977 403.906 61.1562C404.855 61.7148 405.57 62.4648 406.051 63.4062L403.996 64.9219C403.637 64.2188 403.137 63.6797 402.492 63.3086C401.848 62.9375 401.148 62.75 400.391 62.75C399.793 62.75 399.242 62.875 398.746 63.1289C398.246 63.3828 397.82 63.7266 397.469 64.1641C397.117 64.6016 396.844 65.1094 396.652 65.6797C396.461 66.25 396.363 66.8555 396.363 67.4922C396.363 68.1562 396.469 68.7773 396.684 69.3555C396.895 69.9336 397.187 70.4375 397.559 70.8594C397.93 71.2852 398.371 71.6211 398.887 71.8672C399.395 72.1133 399.949 72.2344 400.551 72.2344C401.918 72.2344 403.152 71.5937 404.258 70.3047V69.3086H401.406V67.293H406.527V74.5664H404.258" fill="#221E1F"/>
<path d="M411.133 59.2227L409.418 58.7031L410.492 56.332H412.984L411.133 59.2227ZM409.078 60.418H411.828V74.5664H409.078" fill="#221E1F"/>
<path d="M423.41 64.125C423.316 64.0312 423.145 63.9062 422.902 63.7461C422.656 63.5859 422.355 63.4297 422.004 63.2773C421.652 63.125 421.27 62.9961 420.859 62.8867C420.445 62.7812 420.027 62.7305 419.602 62.7305C418.844 62.7305 418.281 62.8711 417.906 63.1484C417.535 63.4258 417.352 63.8203 417.352 64.3242C417.352 64.6172 417.422 64.8594 417.559 65.0508C417.699 65.2461 417.902 65.4141 418.168 65.5586C418.434 65.707 418.77 65.8398 419.176 65.957C419.578 66.0781 420.047 66.2031 420.578 66.3359C421.27 66.5234 421.898 66.7227 422.461 66.9336C423.027 67.1484 423.504 67.4141 423.898 67.7305C424.289 68.0508 424.594 68.4336 424.805 68.8789C425.016 69.3242 425.121 69.8711 425.121 70.5234C425.121 71.2773 424.98 71.9258 424.695 72.4648C424.41 73.0039 424.023 73.4375 423.539 73.7695C423.055 74.1055 422.496 74.3438 421.863 74.5C421.234 74.6523 420.57 74.7266 419.883 74.7266C418.816 74.7266 417.77 74.5664 416.73 74.25C415.695 73.9297 414.766 73.4805 413.941 72.8945L415.156 70.5234C415.277 70.6406 415.492 70.7969 415.805 70.9883C416.117 71.1836 416.484 71.375 416.91 71.5703C417.336 71.7617 417.809 71.9258 418.328 72.0547C418.844 72.1914 419.375 72.2578 419.922 72.2578C421.438 72.2578 422.191 71.7695 422.191 70.8008C422.191 70.4961 422.105 70.2344 421.934 70.0234C421.762 69.8125 421.516 69.625 421.195 69.4648C420.879 69.3047 420.492 69.1602 420.039 69.0273C419.59 68.8945 419.086 68.75 418.527 68.5898C417.848 68.4023 417.262 68.1992 416.762 67.9805C416.266 67.7617 415.848 67.5039 415.516 67.2031C415.184 66.9023 414.934 66.5586 414.77 66.168C414.602 65.7773 414.52 65.3086 414.52 64.7617C414.52 64.0469 414.652 63.4063 414.918 62.8477C415.184 62.293 415.555 61.8242 416.023 61.4531C416.496 61.082 417.043 60.8008 417.668 60.6055C418.293 60.4141 418.965 60.3164 419.684 60.3164C420.68 60.3164 421.598 60.4727 422.434 60.7852C423.27 61.0977 424 61.4688 424.625 61.8906" fill="#221E1F"/>
<path d="M437.879 62.8281H433.355V74.5664H430.625V62.8281H426.098V60.418H437.879" fill="#221E1F"/>
<path d="M439.828 74.5664H442.578V60.418H439.828V74.5664Z" fill="#221E1F"/>
<path d="M444.871 67.3945C444.871 66.5273 445.027 65.6758 445.34 64.832C445.652 63.9883 446.109 63.2344 446.703 62.5703C447.305 61.9062 448.035 61.3672 448.898 60.957C449.762 60.543 450.746 60.3398 451.848 60.3398C453.148 60.3398 454.277 60.6211 455.227 61.1953C456.176 61.7656 456.883 62.5117 457.352 63.4258L455.234 64.8828C455.051 64.4844 454.824 64.1484 454.559 63.875C454.293 63.6016 454.008 63.3867 453.703 63.2266C453.395 63.0664 453.078 62.9531 452.746 62.8789C452.414 62.8047 452.09 62.7695 451.77 62.7695C451.078 62.7695 450.477 62.9102 449.965 63.1875C449.453 63.4688 449.027 63.8281 448.688 64.2734C448.352 64.7187 448.094 65.2227 447.922 65.7891C447.746 66.3516 447.664 66.9141 447.664 67.4727C447.664 68.0977 447.762 68.6992 447.961 69.2773C448.16 69.8555 448.441 70.3633 448.809 70.8008C449.176 71.2383 449.613 71.5937 450.125 71.8555C450.637 72.1211 451.199 72.2578 451.809 72.2578C452.129 72.2578 452.461 72.2148 452.805 72.1367C453.148 72.0586 453.48 71.9297 453.789 71.7578C454.105 71.5859 454.395 71.3633 454.66 71.0898C454.922 70.8164 455.137 70.4883 455.297 70.1016L457.547 71.3984C457.324 71.9297 457 72.3984 456.582 72.8047C456.164 73.2109 455.691 73.5508 455.164 73.8281C454.641 74.1094 454.078 74.3203 453.48 74.4688C452.883 74.6133 452.301 74.6875 451.73 74.6875C450.719 74.6875 449.797 74.4766 448.961 74.0508C448.121 73.625 447.398 73.0703 446.797 72.3867C446.191 71.6992 445.719 70.9258 445.379 70.0547C445.039 69.1836 444.871 68.2969 444.871 67.3945Z" fill="#221E1F"/>
<path d="M461.395 67.4922C461.395 68.1055 461.488 68.6953 461.676 69.2656C461.859 69.8398 462.129 70.3438 462.48 70.7812C462.836 71.2188 463.266 71.5703 463.777 71.8398C464.289 72.1055 464.871 72.2344 465.52 72.2344C466.188 72.2344 466.773 72.1016 467.285 71.8281C467.797 71.5547 468.23 71.1953 468.578 70.7422C468.934 70.2891 469.199 69.7812 469.379 69.2188C469.559 68.6523 469.645 68.0781 469.645 67.4922C469.645 66.8828 469.551 66.2891 469.355 65.7188C469.164 65.1484 468.895 64.6445 468.539 64.2031C468.187 63.7656 467.758 63.418 467.246 63.1562C466.734 62.8984 466.16 62.7695 465.52 62.7695C464.855 62.7695 464.266 62.9062 463.746 63.1797C463.23 63.4492 462.797 63.8086 462.453 64.2539C462.105 64.6992 461.844 65.2031 461.664 65.7695C461.484 66.3359 461.395 66.9102 461.395 67.4922ZM465.5 74.668C464.465 74.668 463.523 74.4648 462.68 74.0586C461.836 73.6562 461.113 73.1172 460.508 72.4453C459.902 71.7734 459.437 71.0078 459.105 70.1445C458.77 69.2813 458.605 68.3984 458.605 67.4922C458.605 66.5508 458.781 65.6445 459.133 64.7812C459.484 63.918 459.973 63.1562 460.59 62.4922C461.207 61.8242 461.937 61.2969 462.789 60.9062C463.641 60.5156 464.562 60.3164 465.562 60.3164C466.586 60.3164 467.52 60.5273 468.359 60.9453C469.203 61.3633 469.926 61.9102 470.523 62.5898C471.121 63.2695 471.586 64.0391 471.918 64.9023C472.25 65.7656 472.414 66.6445 472.414 67.5312C472.414 68.4766 472.242 69.375 471.898 70.2344C471.551 71.0898 471.074 71.8477 470.465 72.5039C469.852 73.1641 469.121 73.6875 468.27 74.0781C467.422 74.4727 466.496 74.668 465.5 74.668Z" fill="#221E1F"/>
<path d="M483.16 64.125C483.066 64.0312 482.895 63.9062 482.652 63.7461C482.406 63.5859 482.105 63.4297 481.754 63.2773C481.402 63.125 481.02 62.9961 480.609 62.8867C480.195 62.7812 479.777 62.7305 479.352 62.7305C478.594 62.7305 478.031 62.8711 477.656 63.1484C477.285 63.4258 477.102 63.8203 477.102 64.3242C477.102 64.6172 477.172 64.8594 477.309 65.0508C477.449 65.2461 477.652 65.4141 477.918 65.5586C478.184 65.707 478.52 65.8398 478.926 65.957C479.328 66.0781 479.797 66.2031 480.328 66.3359C481.02 66.5234 481.648 66.7227 482.211 66.9336C482.777 67.1484 483.254 67.4141 483.648 67.7305C484.039 68.0508 484.344 68.4336 484.555 68.8789C484.766 69.3242 484.871 69.8711 484.871 70.5234C484.871 71.2773 484.73 71.9258 484.445 72.4648C484.16 73.0039 483.773 73.4375 483.289 73.7695C482.805 74.1055 482.246 74.3438 481.613 74.5C480.984 74.6523 480.32 74.7266 479.633 74.7266C478.566 74.7266 477.52 74.5664 476.48 74.25C475.445 73.9297 474.516 73.4805 473.691 72.8945L474.906 70.5234C475.027 70.6406 475.242 70.7969 475.555 70.9883C475.867 71.1836 476.234 71.375 476.66 71.5703C477.086 71.7617 477.559 71.9258 478.078 72.0547C478.594 72.1914 479.125 72.2578 479.672 72.2578C481.188 72.2578 481.941 71.7695 481.941 70.8008C481.941 70.4961 481.855 70.2344 481.684 70.0234C481.512 69.8125 481.266 69.625 480.945 69.4648C480.629 69.3047 480.242 69.1602 479.789 69.0273C479.34 68.8945 478.836 68.75 478.277 68.5898C477.598 68.4023 477.012 68.1992 476.512 67.9805C476.016 67.7617 475.598 67.5039 475.266 67.2031C474.934 66.9023 474.684 66.5586 474.52 66.168C474.352 65.7773 474.27 65.3086 474.27 64.7617C474.27 64.0469 474.402 63.4063 474.668 62.8477C474.934 62.293 475.305 61.8242 475.773 61.4531C476.246 61.082 476.793 60.8008 477.418 60.6055C478.043 60.4141 478.715 60.3164 479.434 60.3164C480.43 60.3164 481.348 60.4727 482.184 60.7852C483.02 61.0977 483.75 61.4688 484.375 61.8906" fill="#221E1F"/>
<path fill-rule="evenodd" clip-rule="evenodd" d="M472.137 169.543C465.301 144.801 473.266 124.336 495.203 109.508C514.324 96.582 536.062 89.4336 557.477 81.5938C577.715 74.1836 598.18 67.3594 616.457 55.4531C634.695 43.5703 646.656 28.0039 648.211 2.64453C641.918 9.16406 637.73 14.2773 632.789 18.4961C613.418 35.0352 589.891 43.7578 566.707 53.1484C540.66 63.6836 513.852 72.4102 489.16 86.1641C488.262 86.668 487.395 87.2109 486.508 87.7305L486.695 87.1797H453.383L441.109 122.906L440.113 125.793L435.5 139.23L429.344 157.141L424.73 170.578H424.727L417.652 191.172L381.703 87.1797H348.418L403.129 249.441H431.723L457.062 174.641C467.867 197.254 485.02 215.703 502.262 233.957C502.949 233.434 503.641 232.914 504.332 232.391C499.328 224.574 494.336 216.738 489.316 208.926C481.473 196.723 475.98 183.445 472.137 169.543Z" fill="#80C99F"/>
<path d="M403.848 248.441H431.004L456.906 171.988L457.965 174.211C468.84 196.973 486.586 215.902 502.371 232.617L502.992 232.152L498.242 224.727C494.992 219.637 491.742 214.547 488.477 209.469C480.992 197.824 475.328 184.852 471.172 169.809C464.277 144.855 472.395 123.715 494.645 108.68C511.809 97.0781 531.328 90.0078 550.203 83.1719C552.516 82.3359 554.824 81.5 557.133 80.6523C559.199 79.8984 561.27 79.1445 563.34 78.3945C581.164 71.9297 599.598 65.2422 615.91 54.6133C635.328 41.9648 645.004 26.6914 647 5.36328C645.648 6.79297 644.395 8.15234 643.172 9.48047C639.727 13.207 636.754 16.4258 633.438 19.2578C615.461 34.6055 593.637 43.3867 572.531 51.8789C570.715 52.6094 568.895 53.3398 567.082 54.0742C560.184 56.8633 553.121 59.5703 546.297 62.1875C527.344 69.4453 507.746 76.9531 489.648 87.0352C489.098 87.3477 488.555 87.6719 488.016 87.9961C487.684 88.1953 487.348 88.3945 487.016 88.5938L484.699 89.9492L485.297 88.1797H454.098L417.652 194.238L380.992 88.1797H349.812L403.848 248.441ZM432.438 250.441H402.41L347.027 86.1797H382.414L417.648 188.102L452.672 86.1797H487.152C487.656 85.8789 488.16 85.5781 488.672 85.2891C506.898 75.1406 526.562 67.6055 545.578 60.3203C552.398 57.707 559.453 55.0039 566.328 52.2227C568.148 51.4844 569.965 50.7539 571.785 50.0234C592.742 41.5898 614.41 32.8711 632.141 17.7344C635.363 14.9844 638.301 11.8047 641.703 8.12109C643.496 6.17578 645.355 4.16406 647.492 1.94922L649.379 0L649.211 2.70703C647.77 26.1914 637.84 42.7148 617.004 56.2891C600.492 67.0469 581.953 73.7734 564.02 80.2734C561.953 81.0273 559.887 81.7773 557.82 82.5312C555.512 83.3789 553.199 84.2148 550.887 85.0547C532.121 91.8477 512.723 98.875 495.766 110.336C473.988 125.055 466.359 144.883 473.102 169.277C477.203 184.121 482.785 196.914 490.16 208.387C493.422 213.469 496.676 218.559 499.93 223.648L505.672 232.633L502.148 235.293L501.535 234.645C485.996 218.195 468.453 199.621 457.23 177.258" fill="#80C99F"/>
<path fill-rule="evenodd" clip-rule="evenodd" d="M562.73 91.0117C539.082 97.9648 515.676 105.82 495.34 120.492C492.355 122.648 489.48 124.953 486.551 127.191C516.078 117.363 547.242 118.094 576.797 110.609C604.164 103.672 624.746 88.793 635.98 62.2812C636.34 61.4336 636.609 60.543 636.828 59.6484C636.883 59.4414 636.574 59.1406 636.086 58.2734C614.859 76.4883 588.699 83.3789 562.73 91.0117Z" fill="#80C99F"/>
<path d="M635.738 59.8789C615.773 76.5547 591.289 83.707 567.598 90.6289L563.016 91.9688C540.434 98.6094 516.656 106.344 495.926 121.301C494.457 122.363 492.992 123.477 491.559 124.586C506.578 120.223 522.07 118.234 537.105 116.309C550.152 114.637 563.641 112.906 576.551 109.637C605.406 102.324 624.547 86.707 635.059 61.8906C635.312 61.2891 635.535 60.6289 635.738 59.8789ZM481.188 130.031L485.945 126.398C486.879 125.684 487.805 124.965 488.73 124.246C490.687 122.727 492.711 121.16 494.754 119.68C515.742 104.539 539.703 96.7383 562.449 90.0508L567.039 88.707C590.922 81.7305 615.621 74.5195 635.434 57.5156L636.359 56.7188L636.957 57.7812C637.133 58.0938 637.281 58.3242 637.398 58.5039C637.676 58.9375 637.938 59.3438 637.801 59.8906C637.543 60.9375 637.25 61.8477 636.902 62.6719C626.125 88.1016 606.547 104.098 577.039 111.574C564.012 114.875 550.465 116.613 537.359 118.293C520.637 120.437 503.344 122.652 486.867 128.141" fill="#80C99F"/>
<path fill-rule="evenodd" clip-rule="evenodd" d="M485.805 139.445C509.707 136.734 533.195 142.293 556.84 141.219C576.344 140.34 592.195 132.371 605.285 118.309C606.652 116.84 608.719 115.461 607.574 112.148C568.664 129.031 524.414 121.367 485.805 139.445Z" fill="#80C99F"/>
<path d="M500.098 137.691C508.59 137.691 517.152 138.371 525.438 139.031C533.645 139.684 542.133 140.359 550.465 140.359C552.645 140.359 554.773 140.313 556.793 140.223C575.574 139.371 591.195 131.98 604.555 117.625C604.746 117.422 604.949 117.219 605.156 117.012C606.203 115.965 607.07 115.098 606.883 113.531C588.062 121.457 567.793 123.852 548.18 126.168C529.328 128.395 509.895 130.688 491.82 137.926C494.465 137.77 497.207 137.691 500.098 137.691ZM550.465 142.359C542.051 142.359 533.523 141.68 525.277 141.027C517.035 140.371 508.508 139.691 500.098 139.691C494.988 139.691 490.348 139.938 485.914 140.441L479.855 141.129L485.379 138.539C505.289 129.219 526.973 126.656 547.941 124.18C567.793 121.836 588.32 119.414 607.176 111.23L608.164 110.801L608.516 111.82C609.715 115.281 607.895 117.098 606.57 118.426C606.379 118.613 606.195 118.801 606.02 118.988C592.285 133.746 576.215 141.344 556.887 142.219C554.832 142.312 552.672 142.359 550.465 142.359Z" fill="#80C99F"/>
<path fill-rule="evenodd" clip-rule="evenodd" d="M485.078 189.176C499.418 200.188 543.277 216.066 562.844 216.559C533.73 200.039 503.031 186.305 474.605 163.27C476.297 174.645 477.379 183.266 485.078 189.176Z" fill="#80C99F"/>
<path d="M475.969 165.641C477.48 175.754 478.871 183.152 485.684 188.379C499.23 198.781 538.047 212.859 558.43 215.227C552.203 211.758 545.859 208.359 539.691 205.059C518.488 193.707 496.59 181.98 475.969 165.641ZM566.809 217.66L562.816 217.559C543.555 217.074 499.617 201.602 484.469 189.969C476.656 183.977 475.379 175.312 473.758 164.344L473.242 160.875L475.238 162.492C496.285 179.551 518.832 191.621 540.633 203.293C548.113 207.297 555.848 211.438 563.336 215.688" fill="#80C99F"/>
<path fill-rule="evenodd" clip-rule="evenodd" d="M484.906 148.883C509.094 163.75 549.859 165.34 567.227 151.418C539.211 151.52 512.266 146.484 484.906 148.883Z" fill="#80C99F"/>
<path d="M488.195 149.629C500.172 156.16 516.238 160 531.906 160C545.012 160 556.527 157.262 564.121 152.41C553.613 152.309 543.16 151.547 533.027 150.809C522.418 150.031 511.445 149.234 500.691 149.234C496.277 149.234 492.156 149.363 488.195 149.629ZM531.906 162C514.645 162 496.879 157.414 484.383 149.734L481.805 148.152L484.82 147.887C489.824 147.445 495.016 147.234 500.691 147.234C511.52 147.234 522.527 148.035 533.176 148.812C543.996 149.602 555.191 150.422 566.391 150.422L570.086 150.406L567.852 152.199C559.965 158.52 547.199 162 531.906 162Z" fill="#80C99F"/>
<path fill-rule="evenodd" clip-rule="evenodd" d="M474.605 161L468.289 156.777L471.449 171.98H482.387L474.605 161Z" fill="#80C99F"/>
</svg>
