<svg width="650" height="251" viewBox="0 0 650 251" fill="none" xmlns="http://www.w3.org/2000/svg">
<path d="M160.168 249.441H192.719V87.1797H160.168V249.441Z" fill="#07A79D"/>
<path d="M161.168 248.441H191.719V88.1797H161.168V248.441ZM193.719 250.441H159.168V86.1797H193.719V250.441Z" fill="#07A79D"/>
<path d="M333.145 249.441H217.207V217.867H300.594V181.66H226.477V150.086H300.594V118.754H217.207V87.1797H333.145" fill="#07A79D"/>
<path d="M218.207 248.441H332.145V88.1797H218.207V117.754H301.594V151.086H227.477V180.66H301.594V218.867H218.207V248.441ZM334.145 250.441H216.207V216.867H299.594V182.66H225.477V149.086H299.594V119.754H216.207V86.1797H334.145" fill="#07A79D"/>
<path d="M140.066 87.1797H99.5586L33.5508 150.215V87.1797H1V249.441H33.5508V193.75L47.3477 180.293L98.0039 249.441H138.242L71.4805 156.746L142.789 87.1797" fill="#07A79D"/>
<path d="M98.5117 248.441H136.289L70.1641 156.633L140.332 88.1797H99.9609L32.5508 152.555V88.1797H2V248.441H32.5508V193.332L47.4766 178.773L98.5117 248.441ZM140.195 250.441H97.4961L47.2227 181.812L34.5508 194.172V250.441H0V86.1797H34.5508V147.879L99.1602 86.1797H145.246L72.7969 156.863" fill="#07A79D"/>
<path fill-rule="evenodd" clip-rule="evenodd" d="M472.137 169.543C465.301 144.801 473.266 124.336 495.203 109.508C514.324 96.582 536.062 89.4336 557.477 81.5938C577.715 74.1836 598.18 67.3594 616.457 55.4531C634.695 43.5703 646.656 28.0039 648.211 2.64453C641.918 9.16406 637.73 14.2773 632.789 18.4961C613.418 35.0352 589.891 43.7578 566.707 53.1484C540.66 63.6836 513.852 72.4102 489.16 86.1641C488.262 86.668 487.395 87.2109 486.508 87.7305L486.695 87.1797H453.383L441.109 122.906L440.113 125.793L435.5 139.23L429.344 157.141L424.73 170.578H424.727L417.652 191.172L381.703 87.1797H348.418L403.129 249.441H431.723L457.062 174.641C467.867 197.254 485.02 215.703 502.262 233.957C502.949 233.434 503.641 232.914 504.332 232.391C499.328 224.574 494.336 216.738 489.316 208.926C481.473 196.723 475.98 183.445 472.137 169.543Z" fill="#80C99F"/>
<path d="M403.848 248.441H431.004L456.906 171.988L457.965 174.211C468.84 196.973 486.586 215.902 502.371 232.617L502.992 232.152L498.242 224.727C494.992 219.637 491.742 214.547 488.477 209.469C480.992 197.824 475.328 184.852 471.172 169.809C464.277 144.855 472.395 123.715 494.645 108.68C511.809 97.0781 531.328 90.0078 550.203 83.1719C552.516 82.3359 554.824 81.5 557.133 80.6523C559.199 79.8984 561.27 79.1445 563.34 78.3945C581.164 71.9297 599.598 65.2422 615.91 54.6133C635.328 41.9648 645.004 26.6914 647 5.36328C645.648 6.79297 644.395 8.15234 643.172 9.48047C639.727 13.207 636.754 16.4258 633.438 19.2578C615.461 34.6055 593.637 43.3867 572.531 51.8789C570.715 52.6094 568.895 53.3398 567.082 54.0742C560.184 56.8633 553.121 59.5703 546.297 62.1875C527.344 69.4453 507.746 76.9531 489.648 87.0352C489.098 87.3477 488.555 87.6719 488.016 87.9961C487.684 88.1953 487.348 88.3945 487.016 88.5938L484.699 89.9492L485.297 88.1797H454.098L417.652 194.238L380.992 88.1797H349.812L403.848 248.441ZM432.438 250.441H402.41L347.027 86.1797H382.414L417.648 188.102L452.672 86.1797H487.152C487.656 85.8789 488.16 85.5781 488.672 85.2891C506.898 75.1406 526.562 67.6055 545.578 60.3203C552.398 57.707 559.453 55.0039 566.328 52.2227C568.148 51.4844 569.965 50.7539 571.785 50.0234C592.742 41.5898 614.41 32.8711 632.141 17.7344C635.363 14.9844 638.301 11.8047 641.703 8.12109C643.496 6.17578 645.355 4.16406 647.492 1.94922L649.379 0L649.211 2.70703C647.77 26.1914 637.84 42.7148 617.004 56.2891C600.492 67.0469 581.953 73.7734 564.02 80.2734C561.953 81.0273 559.887 81.7773 557.82 82.5312C555.512 83.3789 553.199 84.2148 550.887 85.0547C532.121 91.8477 512.723 98.875 495.766 110.336C473.988 125.055 466.359 144.883 473.102 169.277C477.203 184.121 482.785 196.914 490.16 208.387C493.422 213.469 496.676 218.559 499.93 223.648L505.672 232.633L502.148 235.293L501.535 234.645C485.996 218.195 468.453 199.621 457.23 177.258" fill="#80C99F"/>
<path fill-rule="evenodd" clip-rule="evenodd" d="M562.73 91.0117C539.082 97.9648 515.676 105.82 495.34 120.492C492.355 122.648 489.48 124.953 486.551 127.191C516.078 117.363 547.242 118.094 576.797 110.609C604.164 103.672 624.746 88.793 635.98 62.2812C636.34 61.4336 636.609 60.543 636.828 59.6484C636.883 59.4414 636.574 59.1406 636.086 58.2734C614.859 76.4883 588.699 83.3789 562.73 91.0117Z" fill="#80C99F"/>
<path d="M635.738 59.8789C615.773 76.5547 591.289 83.707 567.598 90.6289L563.016 91.9688C540.434 98.6094 516.656 106.344 495.926 121.301C494.457 122.363 492.992 123.477 491.559 124.586C506.578 120.223 522.07 118.234 537.105 116.309C550.152 114.637 563.641 112.906 576.551 109.637C605.406 102.324 624.547 86.707 635.059 61.8906C635.312 61.2891 635.535 60.6289 635.738 59.8789ZM481.188 130.031L485.945 126.398C486.879 125.684 487.805 124.965 488.73 124.246C490.687 122.727 492.711 121.16 494.754 119.68C515.742 104.539 539.703 96.7383 562.449 90.0508L567.039 88.707C590.922 81.7305 615.621 74.5195 635.434 57.5156L636.359 56.7188L636.957 57.7812C637.133 58.0938 637.281 58.3242 637.398 58.5039C637.676 58.9375 637.938 59.3438 637.801 59.8906C637.543 60.9375 637.25 61.8477 636.902 62.6719C626.125 88.1016 606.547 104.098 577.039 111.574C564.012 114.875 550.465 116.613 537.359 118.293C520.637 120.437 503.344 122.652 486.867 128.141" fill="#80C99F"/>
<path fill-rule="evenodd" clip-rule="evenodd" d="M485.805 139.445C509.707 136.734 533.195 142.293 556.84 141.219C576.344 140.34 592.195 132.371 605.285 118.309C606.652 116.84 608.719 115.461 607.574 112.148C568.664 129.031 524.414 121.367 485.805 139.445Z" fill="#80C99F"/>
<path d="M500.098 137.691C508.59 137.691 517.152 138.371 525.438 139.031C533.645 139.684 542.133 140.359 550.465 140.359C552.645 140.359 554.773 140.313 556.793 140.223C575.574 139.371 591.195 131.98 604.555 117.625C604.746 117.422 604.949 117.219 605.156 117.012C606.203 115.965 607.07 115.098 606.883 113.531C588.062 121.457 567.793 123.852 548.18 126.168C529.328 128.395 509.895 130.688 491.82 137.926C494.465 137.77 497.207 137.691 500.098 137.691ZM550.465 142.359C542.051 142.359 533.523 141.68 525.277 141.027C517.035 140.371 508.508 139.691 500.098 139.691C494.988 139.691 490.348 139.938 485.914 140.441L479.855 141.129L485.379 138.539C505.289 129.219 526.973 126.656 547.941 124.18C567.793 121.836 588.32 119.414 607.176 111.23L608.164 110.801L608.516 111.82C609.715 115.281 607.895 117.098 606.57 118.426C606.379 118.613 606.195 118.801 606.02 118.988C592.285 133.746 576.215 141.344 556.887 142.219C554.832 142.312 552.672 142.359 550.465 142.359Z" fill="#80C99F"/>
<path fill-rule="evenodd" clip-rule="evenodd" d="M485.078 189.176C499.418 200.188 543.277 216.066 562.844 216.559C533.73 200.039 503.031 186.305 474.605 163.27C476.297 174.645 477.379 183.266 485.078 189.176Z" fill="#80C99F"/>
<path d="M475.969 165.641C477.48 175.754 478.871 183.152 485.684 188.379C499.23 198.781 538.047 212.859 558.43 215.227C552.203 211.758 545.859 208.359 539.691 205.059C518.488 193.707 496.59 181.98 475.969 165.641ZM566.809 217.66L562.816 217.559C543.555 217.074 499.617 201.602 484.469 189.969C476.656 183.977 475.379 175.312 473.758 164.344L473.242 160.875L475.238 162.492C496.285 179.551 518.832 191.621 540.633 203.293C548.113 207.297 555.848 211.438 563.336 215.688" fill="#80C99F"/>
<path fill-rule="evenodd" clip-rule="evenodd" d="M484.906 148.883C509.094 163.75 549.859 165.34 567.227 151.418C539.211 151.52 512.266 146.484 484.906 148.883Z" fill="#80C99F"/>
<path d="M488.195 149.629C500.172 156.16 516.238 160 531.906 160C545.012 160 556.527 157.262 564.121 152.41C553.613 152.309 543.16 151.547 533.027 150.809C522.418 150.031 511.445 149.234 500.691 149.234C496.277 149.234 492.156 149.363 488.195 149.629ZM531.906 162C514.645 162 496.879 157.414 484.383 149.734L481.805 148.152L484.82 147.887C489.824 147.445 495.016 147.234 500.691 147.234C511.52 147.234 522.527 148.035 533.176 148.812C543.996 149.602 555.191 150.422 566.391 150.422L570.086 150.406L567.852 152.199C559.965 158.52 547.199 162 531.906 162Z" fill="#80C99F"/>
<path fill-rule="evenodd" clip-rule="evenodd" d="M474.605 161L468.289 156.777L471.449 171.98H482.387L474.605 161Z" fill="#80C99F"/>
</svg>
