<svg width="500" height="500" viewBox="0 0 500 500" fill="none" xmlns="http://www.w3.org/2000/svg">
<circle cx="250" cy="250" r="250" fill="white"/>
<path fill-rule="evenodd" clip-rule="evenodd" d="M237.109 289.543C230.273 264.801 238.238 244.336 260.176 229.508C279.297 216.582 301.035 209.434 322.449 201.594C342.688 194.184 363.152 187.359 381.43 175.453C399.668 163.57 411.629 148.004 413.184 122.645C406.891 129.164 402.703 134.277 397.762 138.496C378.391 155.035 354.863 163.758 331.68 173.148C305.633 183.684 278.824 192.41 254.133 206.164C253.234 206.668 252.367 207.211 251.48 207.73L251.668 207.18H218.355L206.082 242.906L205.086 245.793L200.473 259.23L194.316 277.141L189.703 290.578H189.699L182.625 311.172L146.676 207.18H113.391L168.102 369.441H196.695L222.035 294.641C232.84 317.254 249.992 335.703 267.234 353.957C267.922 353.434 268.613 352.914 269.305 352.391C264.301 344.574 259.309 336.738 254.289 328.926C246.445 316.723 240.953 303.445 237.109 289.543Z" fill="#80C99F"/>
<path d="M168.82 368.441H195.977L221.879 291.988L222.938 294.211C233.812 316.973 251.559 335.902 267.344 352.617L267.965 352.152L263.215 344.727C259.965 339.637 256.715 334.547 253.449 329.469C245.965 317.824 240.301 304.852 236.145 289.809C229.25 264.855 237.367 243.715 259.617 228.68C276.781 217.078 296.301 210.008 315.176 203.172C317.488 202.336 319.797 201.5 322.105 200.652C324.172 199.898 326.242 199.145 328.312 198.395C346.137 191.93 364.57 185.242 380.883 174.613C400.301 161.965 409.977 146.691 411.973 125.363C410.621 126.793 409.367 128.152 408.145 129.48C404.699 133.207 401.727 136.426 398.41 139.258C380.434 154.605 358.609 163.387 337.504 171.879C335.688 172.609 333.867 173.34 332.055 174.074C325.156 176.863 318.094 179.57 311.27 182.188C292.316 189.445 272.719 196.953 254.621 207.035C254.07 207.348 253.527 207.672 252.988 207.996C252.656 208.195 252.32 208.395 251.988 208.594L249.672 209.949L250.27 208.18H219.07L182.625 314.238L145.965 208.18H114.785L168.82 368.441ZM197.41 370.441H167.383L112 206.18H147.387L182.621 308.102L217.645 206.18H252.125C252.629 205.879 253.133 205.578 253.645 205.289C271.871 195.141 291.535 187.605 310.551 180.32C317.371 177.707 324.426 175.004 331.301 172.223C333.121 171.484 334.938 170.754 336.758 170.023C357.715 161.59 379.383 152.871 397.113 137.734C400.336 134.984 403.273 131.805 406.676 128.121C408.469 126.176 410.328 124.164 412.465 121.949L414.352 120L414.184 122.707C412.742 146.191 402.812 162.715 381.977 176.289C365.465 187.047 346.926 193.773 328.992 200.273C326.926 201.027 324.859 201.777 322.793 202.531C320.484 203.379 318.172 204.215 315.859 205.055C297.094 211.848 277.695 218.875 260.738 230.336C238.961 245.055 231.332 264.883 238.074 289.277C242.176 304.121 247.758 316.914 255.133 328.387C258.395 333.469 261.648 338.559 264.902 343.648L270.645 352.633L267.121 355.293L266.508 354.645C250.969 338.195 233.426 319.621 222.203 297.258" fill="#80C99F"/>
<path fill-rule="evenodd" clip-rule="evenodd" d="M327.703 211.012C304.055 217.965 280.648 225.82 260.312 240.492C257.328 242.648 254.453 244.953 251.523 247.191C281.051 237.363 312.215 238.094 341.77 230.609C369.137 223.672 389.719 208.793 400.953 182.281C401.312 181.434 401.582 180.543 401.801 179.648C401.855 179.441 401.547 179.141 401.059 178.273C379.832 196.488 353.672 203.379 327.703 211.012Z" fill="#80C99F"/>
<path d="M400.711 179.879C380.746 196.555 356.262 203.707 332.57 210.629L327.988 211.969C305.406 218.609 281.629 226.344 260.898 241.301C259.43 242.363 257.965 243.477 256.531 244.586C271.551 240.223 287.043 238.234 302.078 236.309C315.125 234.637 328.613 232.906 341.523 229.637C370.379 222.324 389.52 206.707 400.031 181.891C400.285 181.289 400.508 180.629 400.711 179.879ZM246.16 250.031L250.918 246.398C251.852 245.684 252.777 244.965 253.703 244.246C255.66 242.727 257.684 241.16 259.727 239.68C280.715 224.539 304.676 216.738 327.422 210.051L332.012 208.707C355.895 201.73 380.594 194.52 400.406 177.516L401.332 176.719L401.93 177.781C402.105 178.094 402.254 178.324 402.371 178.504C402.648 178.938 402.91 179.344 402.773 179.891C402.516 180.938 402.223 181.848 401.875 182.672C391.098 208.102 371.52 224.098 342.012 231.574C328.984 234.875 315.438 236.613 302.332 238.293C285.609 240.437 268.316 242.652 251.84 248.141" fill="#80C99F"/>
<path fill-rule="evenodd" clip-rule="evenodd" d="M250.777 259.445C274.68 256.734 298.168 262.293 321.812 261.219C341.316 260.34 357.168 252.371 370.258 238.309C371.625 236.84 373.691 235.461 372.547 232.148C333.637 249.031 289.387 241.367 250.777 259.445Z" fill="#80C99F"/>
<path d="M265.07 257.691C273.563 257.691 282.125 258.371 290.41 259.031C298.617 259.684 307.105 260.359 315.438 260.359C317.617 260.359 319.746 260.313 321.766 260.223C340.547 259.371 356.168 251.98 369.527 237.625C369.719 237.422 369.922 237.219 370.129 237.012C371.176 235.965 372.043 235.098 371.855 233.531C353.035 241.457 332.766 243.852 313.152 246.168C294.301 248.395 274.867 250.688 256.793 257.926C259.437 257.77 262.18 257.691 265.07 257.691ZM315.438 262.359C307.023 262.359 298.496 261.68 290.25 261.027C282.008 260.371 273.48 259.691 265.07 259.691C259.961 259.691 255.32 259.938 250.887 260.441L244.828 261.129L250.352 258.539C270.262 249.219 291.945 246.656 312.914 244.18C332.766 241.836 353.293 239.414 372.148 231.23L373.137 230.801L373.488 231.82C374.688 235.281 372.867 237.098 371.543 238.426C371.352 238.613 371.168 238.801 370.992 238.988C357.258 253.746 341.188 261.344 321.859 262.219C319.805 262.312 317.645 262.359 315.438 262.359Z" fill="#80C99F"/>
<path fill-rule="evenodd" clip-rule="evenodd" d="M250.051 309.176C264.391 320.188 308.25 336.066 327.816 336.559C298.703 320.039 268.004 306.305 239.578 283.27C241.27 294.645 242.352 303.266 250.051 309.176Z" fill="#80C99F"/>
<path d="M240.941 285.641C242.453 295.754 243.844 303.152 250.656 308.379C264.203 318.781 303.02 332.859 323.402 335.227C317.176 331.758 310.832 328.359 304.664 325.059C283.461 313.707 261.562 301.98 240.941 285.641ZM331.781 337.66L327.789 337.559C308.527 337.074 264.59 321.602 249.441 309.969C241.629 303.977 240.352 295.312 238.73 284.344L238.215 280.875L240.211 282.492C261.258 299.551 283.805 311.621 305.605 323.293C313.086 327.297 320.82 331.438 328.309 335.688" fill="#80C99F"/>
<path fill-rule="evenodd" clip-rule="evenodd" d="M249.879 268.883C274.066 283.75 314.832 285.34 332.199 271.418C304.184 271.52 277.238 266.484 249.879 268.883Z" fill="#80C99F"/>
<path d="M253.168 269.629C265.145 276.16 281.211 280 296.879 280C309.984 280 321.5 277.262 329.094 272.41C318.586 272.309 308.133 271.547 298 270.809C287.391 270.031 276.418 269.234 265.664 269.234C261.25 269.234 257.129 269.363 253.168 269.629ZM296.879 282C279.617 282 261.852 277.414 249.355 269.734L246.777 268.152L249.793 267.887C254.797 267.445 259.988 267.234 265.664 267.234C276.492 267.234 287.5 268.035 298.148 268.812C308.969 269.602 320.164 270.422 331.363 270.422L335.059 270.406L332.824 272.199C324.937 278.52 312.172 282 296.879 282Z" fill="#80C99F"/>
<path fill-rule="evenodd" clip-rule="evenodd" d="M239.578 281L233.262 276.777L236.422 291.98H247.359L239.578 281Z" fill="#80C99F"/>
</svg>
