<svg width="303" height="251" viewBox="0 0 303 251" fill="none" xmlns="http://www.w3.org/2000/svg">
<path fill-rule="evenodd" clip-rule="evenodd" d="M125.109 169.543C118.273 144.801 126.238 124.336 148.176 109.508C167.297 96.582 189.035 89.4336 210.449 81.5938C230.688 74.1836 251.152 67.3594 269.43 55.4531C287.668 43.5703 299.629 28.0039 301.184 2.64453C294.891 9.16406 290.703 14.2773 285.762 18.4961C266.391 35.0352 242.863 43.7578 219.68 53.1484C193.633 63.6836 166.824 72.4102 142.133 86.1641C141.234 86.668 140.367 87.2109 139.48 87.7305L139.668 87.1797H106.355L94.082 122.906L93.0859 125.793L88.4727 139.23L82.3164 157.141L77.7031 170.578H77.6992L70.625 191.172L34.6758 87.1797H1.39062L56.1016 249.441H84.6953L110.035 174.641C120.84 197.254 137.992 215.703 155.234 233.957C155.922 233.434 156.613 232.914 157.305 232.391C152.301 224.574 147.309 216.738 142.289 208.926C134.445 196.723 128.953 183.445 125.109 169.543Z" fill="#80C99F"/>
<path d="M56.8203 248.441H83.9766L109.879 171.988L110.938 174.211C121.812 196.973 139.559 215.902 155.344 232.617L155.965 232.152L151.215 224.727C147.965 219.637 144.715 214.547 141.449 209.469C133.965 197.824 128.301 184.852 124.145 169.809C117.25 144.855 125.367 123.715 147.617 108.68C164.781 97.0781 184.301 90.0078 203.176 83.1719C205.488 82.3359 207.797 81.5 210.105 80.6523C212.172 79.8984 214.242 79.1445 216.312 78.3945C234.137 71.9297 252.57 65.2422 268.883 54.6133C288.301 41.9648 297.977 26.6914 299.973 5.36328C298.621 6.79297 297.367 8.15234 296.145 9.48047C292.699 13.207 289.727 16.4258 286.41 19.2578C268.434 34.6055 246.609 43.3867 225.504 51.8789C223.688 52.6094 221.867 53.3398 220.055 54.0742C213.156 56.8633 206.094 59.5703 199.27 62.1875C180.316 69.4453 160.719 76.9531 142.621 87.0352C142.07 87.3477 141.527 87.6719 140.988 87.9961C140.656 88.1953 140.32 88.3945 139.988 88.5938L137.672 89.9492L138.27 88.1797H107.07L70.625 194.238L33.9648 88.1797H2.78516L56.8203 248.441ZM85.4102 250.441H55.3828L0 86.1797H35.3867L70.6211 188.102L105.645 86.1797H140.125C140.629 85.8789 141.133 85.5781 141.645 85.2891C159.871 75.1406 179.535 67.6055 198.551 60.3203C205.371 57.707 212.426 55.0039 219.301 52.2227C221.121 51.4844 222.938 50.7539 224.758 50.0234C245.715 41.5898 267.383 32.8711 285.113 17.7344C288.336 14.9844 291.273 11.8047 294.676 8.12109C296.469 6.17578 298.328 4.16406 300.465 1.94922L302.352 0L302.184 2.70703C300.742 26.1914 290.812 42.7148 269.977 56.2891C253.465 67.0469 234.926 73.7734 216.992 80.2734C214.926 81.0273 212.859 81.7773 210.793 82.5312C208.484 83.3789 206.172 84.2148 203.859 85.0547C185.094 91.8477 165.695 98.875 148.738 110.336C126.961 125.055 119.332 144.883 126.074 169.277C130.176 184.121 135.758 196.914 143.133 208.387C146.395 213.469 149.648 218.559 152.902 223.648L158.645 232.633L155.121 235.293L154.508 234.645C138.969 218.195 121.426 199.621 110.203 177.258" fill="#80C99F"/>
<path fill-rule="evenodd" clip-rule="evenodd" d="M215.703 91.0117C192.055 97.9648 168.648 105.82 148.312 120.492C145.328 122.648 142.453 124.953 139.523 127.191C169.051 117.363 200.215 118.094 229.77 110.609C257.137 103.672 277.719 88.793 288.953 62.2812C289.312 61.4336 289.582 60.543 289.801 59.6484C289.855 59.4414 289.547 59.1406 289.059 58.2734C267.832 76.4883 241.672 83.3789 215.703 91.0117Z" fill="#80C99F"/>
<path d="M288.711 59.8789C268.746 76.5547 244.262 83.707 220.57 90.6289L215.988 91.9688C193.406 98.6094 169.629 106.344 148.898 121.301C147.43 122.363 145.965 123.477 144.531 124.586C159.551 120.223 175.043 118.234 190.078 116.309C203.125 114.637 216.613 112.906 229.523 109.637C258.379 102.324 277.52 86.707 288.031 61.8906C288.285 61.2891 288.508 60.6289 288.711 59.8789ZM134.16 130.031L138.918 126.398C139.852 125.684 140.777 124.965 141.703 124.246C143.66 122.727 145.684 121.16 147.727 119.68C168.715 104.539 192.676 96.7383 215.422 90.0508L220.012 88.707C243.895 81.7305 268.594 74.5195 288.406 57.5156L289.332 56.7188L289.93 57.7812C290.105 58.0938 290.254 58.3242 290.371 58.5039C290.648 58.9375 290.91 59.3438 290.773 59.8906C290.516 60.9375 290.223 61.8477 289.875 62.6719C279.098 88.1016 259.52 104.098 230.012 111.574C216.984 114.875 203.438 116.613 190.332 118.293C173.609 120.437 156.316 122.652 139.84 128.141" fill="#80C99F"/>
<path fill-rule="evenodd" clip-rule="evenodd" d="M138.777 139.445C162.68 136.734 186.168 142.293 209.812 141.219C229.316 140.34 245.168 132.371 258.258 118.309C259.625 116.84 261.691 115.461 260.547 112.148C221.637 129.031 177.387 121.367 138.777 139.445Z" fill="#80C99F"/>
<path d="M153.07 137.691C161.563 137.691 170.125 138.371 178.41 139.031C186.617 139.684 195.105 140.359 203.438 140.359C205.617 140.359 207.746 140.313 209.766 140.223C228.547 139.371 244.168 131.98 257.527 117.625C257.719 117.422 257.922 117.219 258.129 117.012C259.176 115.965 260.043 115.098 259.855 113.531C241.035 121.457 220.766 123.852 201.152 126.168C182.301 128.395 162.867 130.688 144.793 137.926C147.437 137.77 150.18 137.691 153.07 137.691ZM203.438 142.359C195.023 142.359 186.496 141.68 178.25 141.027C170.008 140.371 161.48 139.691 153.07 139.691C147.961 139.691 143.32 139.938 138.887 140.441L132.828 141.129L138.352 138.539C158.262 129.219 179.945 126.656 200.914 124.18C220.766 121.836 241.293 119.414 260.148 111.23L261.137 110.801L261.488 111.82C262.688 115.281 260.867 117.098 259.543 118.426C259.352 118.613 259.168 118.801 258.992 118.988C245.258 133.746 229.188 141.344 209.859 142.219C207.805 142.312 205.645 142.359 203.438 142.359Z" fill="#80C99F"/>
<path fill-rule="evenodd" clip-rule="evenodd" d="M138.051 189.176C152.391 200.188 196.25 216.066 215.816 216.559C186.703 200.039 156.004 186.305 127.578 163.27C129.27 174.645 130.352 183.266 138.051 189.176Z" fill="#80C99F"/>
<path d="M128.941 165.641C130.453 175.754 131.844 183.152 138.656 188.379C152.203 198.781 191.02 212.859 211.402 215.227C205.176 211.758 198.832 208.359 192.664 205.059C171.461 193.707 149.562 181.98 128.941 165.641ZM219.781 217.66L215.789 217.559C196.527 217.074 152.59 201.602 137.441 189.969C129.629 183.977 128.352 175.312 126.73 164.344L126.215 160.875L128.211 162.492C149.258 179.551 171.805 191.621 193.605 203.293C201.086 207.297 208.82 211.438 216.309 215.688" fill="#80C99F"/>
<path fill-rule="evenodd" clip-rule="evenodd" d="M137.879 148.883C162.066 163.75 202.832 165.34 220.199 151.418C192.184 151.52 165.238 146.484 137.879 148.883Z" fill="#80C99F"/>
<path d="M141.168 149.629C153.145 156.16 169.211 160 184.879 160C197.984 160 209.5 157.262 217.094 152.41C206.586 152.309 196.133 151.547 186 150.809C175.391 150.031 164.418 149.234 153.664 149.234C149.25 149.234 145.129 149.363 141.168 149.629ZM184.879 162C167.617 162 149.852 157.414 137.355 149.734L134.777 148.152L137.793 147.887C142.797 147.445 147.988 147.234 153.664 147.234C164.492 147.234 175.5 148.035 186.148 148.812C196.969 149.602 208.164 150.422 219.363 150.422L223.059 150.406L220.824 152.199C212.937 158.52 200.172 162 184.879 162Z" fill="#80C99F"/>
<path fill-rule="evenodd" clip-rule="evenodd" d="M127.578 161L121.262 156.777L124.422 171.98H135.359L127.578 161Z" fill="#80C99F"/>
</svg>
